<svg width="102" height="93" viewBox="0 0 102 93" fill="none" xmlns="http://www.w3.org/2000/svg">
<path d="M2.41106 0.750565C2.41106 0.939546 2.33602 1.12079 2.20244 1.25442C2.06886 1.38805 1.88768 1.46312 1.69876 1.46312C1.50985 1.46312 1.32867 1.38805 1.19509 1.25442C1.06151 1.12079 0.986465 0.939546 0.986465 0.750565C0.986465 0.561584 1.06151 0.380343 1.19509 0.246714C1.32867 0.113084 1.50985 0.0380117 1.69876 0.0380117C1.88768 0.0380117 2.06886 0.113084 2.20244 0.246714C2.33602 0.380343 2.41106 0.561584 2.41106 0.750565ZM11.4183 0.750565C11.4183 0.939546 11.3433 1.12079 11.2097 1.25442C11.0761 1.38805 10.8949 1.46312 10.706 1.46312C10.5171 1.46312 10.3359 1.38805 10.2024 1.25442C10.0688 1.12079 9.99373 0.939546 9.99373 0.750565C9.99373 0.561584 10.0688 0.380343 10.2024 0.246714C10.3359 0.113084 10.5171 0.0380117 10.706 0.0380117C10.8949 0.0380117 11.0761 0.113084 11.2097 0.246714C11.3433 0.380343 11.4183 0.561584 11.4183 0.750565ZM20.4256 0.750565C20.4256 0.939609 20.3505 1.12091 20.2169 1.25458C20.0833 1.38826 19.902 1.46336 19.7131 1.46336C19.5241 1.46336 19.3428 1.38826 19.2092 1.25458C19.0756 1.12091 19.0005 0.939609 19.0005 0.750565C19.0005 0.561521 19.0756 0.38022 19.2092 0.246546C19.3428 0.112872 19.5241 0.0377741 19.7131 0.0377741C19.902 0.0377741 20.0833 0.112872 20.2169 0.246546C20.3505 0.38022 20.4256 0.561521 20.4256 0.750565ZM29.4329 0.750565C29.4329 0.939609 29.3578 1.12091 29.2242 1.25458C29.0905 1.38826 28.9093 1.46336 28.7203 1.46336C28.5313 1.46336 28.3501 1.38826 28.2165 1.25458C28.0829 1.12091 28.0078 0.939609 28.0078 0.750565C28.0078 0.561584 28.0828 0.380343 28.2164 0.246714C28.35 0.113084 28.5312 0.0380117 28.7201 0.0380117C28.909 0.0380117 29.0902 0.113084 29.2238 0.246714C29.3573 0.380343 29.4324 0.561584 29.4324 0.750565H29.4329ZM38.4401 0.750565C38.4401 0.939609 38.365 1.12091 38.2314 1.25458C38.0978 1.38826 37.9166 1.46336 37.7276 1.46336C37.5386 1.46336 37.3574 1.38826 37.2237 1.25458C37.0901 1.12091 37.015 0.939609 37.015 0.750565C37.015 0.561584 37.0901 0.380343 37.2237 0.246714C37.3573 0.113084 37.5384 0.0380117 37.7273 0.0380117C37.9163 0.0380117 38.0974 0.113084 38.231 0.246714C38.3646 0.380343 38.4396 0.561584 38.4396 0.750565H38.4401ZM47.4469 0.750565C47.4469 0.939546 47.3719 1.12079 47.2383 1.25442C47.1047 1.38805 46.9235 1.46312 46.7346 1.46312C46.5457 1.46312 46.3645 1.38805 46.2309 1.25442C46.0974 1.12079 46.0223 0.939546 46.0223 0.750565C46.0223 0.561584 46.0974 0.380343 46.2309 0.246714C46.3645 0.113084 46.5457 0.0380117 46.7346 0.0380117C46.9235 0.0380117 47.1047 0.113084 47.2383 0.246714C47.3719 0.380343 47.4469 0.561584 47.4469 0.750565ZM56.4542 0.750565C56.4542 0.939546 56.3791 1.12079 56.2455 1.25442C56.112 1.38805 55.9308 1.46312 55.7419 1.46312C55.553 1.46312 55.3718 1.38805 55.2382 1.25442C55.1046 1.12079 55.0296 0.939546 55.0296 0.750565C55.0296 0.561584 55.1046 0.380343 55.2382 0.246714C55.3718 0.113084 55.553 0.0380117 55.7419 0.0380117C55.9308 0.0380117 56.112 0.113084 56.2455 0.246714C56.3791 0.380343 56.4542 0.561584 56.4542 0.750565ZM65.4619 0.750565C65.4619 0.939609 65.3868 1.12091 65.2532 1.25458C65.1196 1.38826 64.9384 1.46336 64.7494 1.46336C64.5604 1.46336 64.3792 1.38826 64.2455 1.25458C64.1119 1.12091 64.0368 0.939609 64.0368 0.750565C64.0368 0.561521 64.1119 0.38022 64.2455 0.246546C64.3792 0.112872 64.5604 0.0377741 64.7494 0.0377741C64.9384 0.0377741 65.1196 0.112872 65.2532 0.246546C65.3868 0.38022 65.4619 0.561521 65.4619 0.750565ZM74.4692 0.750565C74.4692 0.939609 74.3941 1.12091 74.2605 1.25458C74.1269 1.38826 73.9456 1.46336 73.7566 1.46336C73.5677 1.46336 73.3864 1.38826 73.2528 1.25458C73.1192 1.12091 73.0441 0.939609 73.0441 0.750565C73.0441 0.561584 73.1191 0.380343 73.2527 0.246714C73.3863 0.113084 73.5675 0.0380117 73.7564 0.0380117C73.9453 0.0380117 74.1265 0.113084 74.2601 0.246714C74.3937 0.380343 74.4687 0.561584 74.4687 0.750565H74.4692ZM83.4764 0.750565C83.4764 0.939672 83.4013 1.12103 83.2677 1.25475C83.134 1.38847 82.9527 1.46359 82.7637 1.46359C82.5746 1.46359 82.3933 1.38847 82.2597 1.25475C82.126 1.12103 82.0509 0.939672 82.0509 0.750565C82.0509 0.561458 82.126 0.380097 82.2597 0.246378C82.3933 0.112659 82.5746 0.0375366 82.7637 0.0375366C82.9527 0.0375366 83.134 0.112659 83.2677 0.246378C83.4013 0.380097 83.4764 0.561458 83.4764 0.750565ZM92.4832 0.750565C92.4832 0.939546 92.4082 1.12079 92.2746 1.25442C92.141 1.38805 91.9598 1.46312 91.7709 1.46312C91.582 1.46312 91.4008 1.38805 91.2673 1.25442C91.1337 1.12079 91.0586 0.939546 91.0586 0.750565C91.0586 0.561584 91.1337 0.380343 91.2673 0.246714C91.4008 0.113084 91.582 0.0380117 91.7709 0.0380117C91.9598 0.0380117 92.141 0.113084 92.2746 0.246714C92.4082 0.380343 92.4832 0.561584 92.4832 0.750565ZM101.49 0.750565C101.49 0.939609 101.415 1.12091 101.282 1.25458C101.148 1.38826 100.967 1.46336 100.778 1.46336C100.589 1.46336 100.408 1.38826 100.274 1.25458C100.14 1.12091 100.065 0.939609 100.065 0.750565C100.065 0.561521 100.14 0.38022 100.274 0.246546C100.408 0.112872 100.589 0.0377741 100.778 0.0377741C100.967 0.0377741 101.148 0.112872 101.282 0.246546C101.415 0.38022 101.49 0.561521 101.49 0.750565ZM2.41106 9.88265C2.41106 10.0716 2.33602 10.2529 2.20244 10.3865C2.06886 10.5201 1.88768 10.5952 1.69876 10.5952C1.50985 10.5952 1.32867 10.5201 1.19509 10.3865C1.06151 10.2529 0.986465 10.0716 0.986465 9.88265C0.986465 9.69367 1.06151 9.51243 1.19509 9.3788C1.32867 9.24517 1.50985 9.1701 1.69876 9.1701C1.88768 9.1701 2.06886 9.24517 2.20244 9.3788C2.33602 9.51243 2.41106 9.69367 2.41106 9.88265ZM11.4183 9.88265C11.4183 9.97622 11.3998 10.0689 11.364 10.1553C11.3282 10.2418 11.2757 10.3203 11.2095 10.3864C11.1434 10.4526 11.0648 10.505 10.9784 10.5408C10.892 10.5766 10.7993 10.595 10.7058 10.595C10.6123 10.5949 10.5196 10.5765 10.4332 10.5406C10.3468 10.5048 10.2683 10.4523 10.2022 10.3861C10.1361 10.3199 10.0836 10.2413 10.0479 10.1549C10.0121 10.0684 9.9937 9.97575 9.99373 9.88218C9.99373 9.69319 10.0688 9.51195 10.2024 9.37832C10.3359 9.24469 10.5171 9.16962 10.706 9.16962C10.8949 9.16962 11.0761 9.24469 11.2097 9.37832C11.3433 9.51195 11.4183 9.69319 11.4183 9.88218V9.88265ZM20.4256 9.88265C20.4256 9.97626 20.4071 10.0689 20.3713 10.1554C20.3354 10.2419 20.2829 10.3204 20.2167 10.3866C20.1505 10.4528 20.072 10.5052 19.9855 10.541C19.8991 10.5768 19.8064 10.5952 19.7128 10.5952C19.6192 10.5952 19.5266 10.5767 19.4402 10.5409C19.3537 10.505 19.2752 10.4525 19.209 10.3863C19.1429 10.3201 19.0904 10.2415 19.0547 10.155C19.0189 10.0685 19.0005 9.97578 19.0005 9.88218C19.0005 9.69313 19.0756 9.51183 19.2092 9.37816C19.3428 9.24448 19.5241 9.16938 19.7131 9.16938C19.902 9.16938 20.0833 9.24448 20.2169 9.37816C20.3505 9.51183 20.4256 9.69313 20.4256 9.88218V9.88265ZM29.4329 9.88265C29.4328 10.0717 29.3577 10.253 29.224 10.3866C29.0903 10.5202 28.9091 10.5953 28.7201 10.5952C28.5311 10.5951 28.3499 10.52 28.2163 10.3863C28.0827 10.2525 28.0077 10.0712 28.0078 9.88218C28.0078 9.69319 28.0828 9.51195 28.2164 9.37832C28.35 9.24469 28.5312 9.16962 28.7201 9.16962C28.909 9.16962 29.0902 9.24469 29.2238 9.37832C29.3573 9.51195 29.4324 9.69319 29.4324 9.88218L29.4329 9.88265ZM38.4401 9.88265C38.4401 9.97626 38.4216 10.0689 38.3858 10.1554C38.35 10.2419 38.2974 10.3204 38.2313 10.3866C38.1651 10.4528 38.0865 10.5052 38 10.541C37.9136 10.5768 37.8209 10.5952 37.7273 10.5952C37.6338 10.5952 37.5411 10.5767 37.4547 10.5409C37.3683 10.505 37.2897 10.4525 37.2236 10.3863C37.1574 10.3201 37.105 10.2415 37.0692 10.155C37.0334 10.0685 37.015 9.97578 37.015 9.88218C37.015 9.69319 37.0901 9.51195 37.2237 9.37832C37.3573 9.24469 37.5384 9.16962 37.7273 9.16962C37.9163 9.16962 38.0974 9.24469 38.231 9.37832C38.3646 9.51195 38.4396 9.69319 38.4396 9.88218L38.4401 9.88265ZM47.4469 9.88265C47.4469 10.0716 47.3719 10.2529 47.2383 10.3865C47.1047 10.5201 46.9235 10.5952 46.7346 10.5952C46.5457 10.5952 46.3645 10.5201 46.2309 10.3865C46.0974 10.2529 46.0223 10.0716 46.0223 9.88265C46.0223 9.69367 46.0974 9.51243 46.2309 9.3788C46.3645 9.24517 46.5457 9.1701 46.7346 9.1701C46.9235 9.1701 47.1047 9.24517 47.2383 9.3788C47.3719 9.51243 47.4469 9.69367 47.4469 9.88265ZM56.4542 9.88265C56.4542 10.0716 56.3791 10.2529 56.2455 10.3865C56.112 10.5201 55.9308 10.5952 55.7419 10.5952C55.553 10.5952 55.3718 10.5201 55.2382 10.3865C55.1046 10.2529 55.0296 10.0716 55.0296 9.88265C55.0296 9.69367 55.1046 9.51243 55.2382 9.3788C55.3718 9.24517 55.553 9.1701 55.7419 9.1701C55.9308 9.1701 56.112 9.24517 56.2455 9.3788C56.3791 9.51243 56.4542 9.69367 56.4542 9.88265ZM65.4619 9.88265C65.4619 10.0717 65.3867 10.253 65.2531 10.3866C65.1194 10.5202 64.9381 10.5953 64.7491 10.5952C64.5602 10.5951 64.379 10.52 64.2454 10.3863C64.1118 10.2525 64.0368 10.0712 64.0368 9.88218C64.0368 9.69313 64.1119 9.51183 64.2455 9.37816C64.3792 9.24448 64.5604 9.16938 64.7494 9.16938C64.9384 9.16938 65.1196 9.24448 65.2532 9.37816C65.3868 9.51183 65.4619 9.69313 65.4619 9.88218V9.88265ZM74.4692 9.88265C74.4691 10.0717 74.394 10.253 74.2603 10.3866C74.1266 10.5202 73.9454 10.5953 73.7564 10.5952C73.5674 10.5951 73.3862 10.52 73.2526 10.3863C73.1191 10.2525 73.044 10.0712 73.0441 9.88218C73.0441 9.69319 73.1191 9.51195 73.2527 9.37832C73.3863 9.24469 73.5675 9.16962 73.7564 9.16962C73.9453 9.16962 74.1265 9.24469 74.2601 9.37832C74.3937 9.51195 74.4687 9.69319 74.4687 9.88218L74.4692 9.88265ZM83.4764 9.88265C83.4764 10.0718 83.4012 10.2531 83.2675 10.3868C83.1338 10.5204 82.9525 10.5955 82.7634 10.5954C82.5744 10.5954 82.3931 10.5202 82.2595 10.3864C82.1259 10.2527 82.0508 10.0713 82.0509 9.88218C82.0509 9.69307 82.126 9.51171 82.2597 9.37799C82.3933 9.24427 82.5746 9.16915 82.7637 9.16915C82.9527 9.16915 83.134 9.24427 83.2677 9.37799C83.4013 9.51171 83.4764 9.69307 83.4764 9.88218V9.88265ZM92.4832 9.88265C92.4832 9.97622 92.4647 10.0689 92.4289 10.1553C92.3931 10.2418 92.3406 10.3203 92.2744 10.3864C92.2083 10.4526 92.1297 10.505 92.0433 10.5408C91.9569 10.5766 91.8642 10.595 91.7707 10.595C91.6772 10.5949 91.5845 10.5765 91.4981 10.5406C91.4117 10.5048 91.3332 10.4523 91.2671 10.3861C91.201 10.3199 91.1485 10.2413 91.1128 10.1549C91.077 10.0684 91.0586 9.97575 91.0586 9.88218C91.0586 9.69319 91.1337 9.51195 91.2673 9.37832C91.4008 9.24469 91.582 9.16962 91.7709 9.16962C91.9598 9.16962 92.141 9.24469 92.2746 9.37832C92.4082 9.51195 92.4832 9.69319 92.4832 9.88218V9.88265ZM101.49 9.88265C101.49 10.0717 101.415 10.253 101.282 10.3866C101.148 10.5202 100.967 10.5953 100.778 10.5952C100.589 10.5951 100.408 10.52 100.274 10.3863C100.14 10.2525 100.065 10.0712 100.065 9.88218C100.065 9.69313 100.14 9.51183 100.274 9.37816C100.408 9.24448 100.589 9.16938 100.778 9.16938C100.967 9.16938 101.148 9.24448 101.282 9.37816C101.415 9.51183 101.49 9.69313 101.49 9.88218V9.88265ZM2.41106 19.0138C2.41462 19.1095 2.39886 19.2049 2.36472 19.2944C2.33058 19.3839 2.27877 19.4655 2.21237 19.5345C2.14597 19.6035 2.06635 19.6584 1.97827 19.6959C1.8902 19.7334 1.79546 19.7528 1.69973 19.7528C1.604 19.7529 1.50924 19.7336 1.42111 19.6963C1.33298 19.6589 1.2533 19.6041 1.18681 19.5352C1.12032 19.4663 1.06839 19.3847 1.03413 19.2953C0.999874 19.2059 0.983984 19.1104 0.987415 19.0147C0.994023 18.8304 1.07185 18.6558 1.20452 18.5276C1.3372 18.3995 1.51437 18.3278 1.69878 18.3277C1.88319 18.3276 2.06047 18.399 2.19331 18.527C2.32615 18.6549 2.40421 18.8294 2.41106 19.0138ZM11.4183 19.0138C11.4183 19.2028 11.3433 19.384 11.2097 19.5176C11.0761 19.6513 10.8949 19.7263 10.706 19.7263C10.5171 19.7263 10.3359 19.6513 10.2024 19.5176C10.0688 19.384 9.99373 19.2028 9.99373 19.0138C9.99373 18.8248 10.0688 18.6436 10.2024 18.5099C10.3359 18.3763 10.5171 18.3012 10.706 18.3012C10.8949 18.3012 11.0761 18.3763 11.2097 18.5099C11.3433 18.6436 11.4183 18.8248 11.4183 19.0138ZM20.4256 19.0138C20.4256 19.2028 20.3505 19.384 20.217 19.5176C20.0834 19.6513 19.9022 19.7263 19.7133 19.7263C19.5244 19.7263 19.3432 19.6513 19.2096 19.5176C19.076 19.384 19.001 19.2028 19.001 19.0138C19.001 18.8248 19.076 18.6436 19.2096 18.5099C19.3432 18.3763 19.5244 18.3012 19.7133 18.3012C19.9022 18.3012 20.0834 18.3763 20.217 18.5099C20.3505 18.6436 20.4256 18.8248 20.4256 19.0138ZM29.4329 19.0138C29.4329 19.2028 29.3578 19.384 29.2242 19.5176C29.0906 19.6513 28.9095 19.7263 28.7206 19.7263C28.5316 19.7263 28.3505 19.6513 28.2169 19.5176C28.0833 19.384 28.0083 19.2028 28.0083 19.0138C28.0083 18.8248 28.0833 18.6436 28.2169 18.5099C28.3505 18.3763 28.5316 18.3012 28.7206 18.3012C28.9095 18.3012 29.0906 18.3763 29.2242 18.5099C29.3578 18.6436 29.4329 18.8248 29.4329 19.0138ZM38.4401 19.0138C38.4401 19.2028 38.3651 19.384 38.2315 19.5176C38.0979 19.6513 37.9167 19.7263 37.7278 19.7263C37.5389 19.7263 37.3577 19.6513 37.2241 19.5176C37.0906 19.384 37.0155 19.2028 37.0155 19.0138C37.0155 18.8248 37.0906 18.6436 37.2241 18.5099C37.3577 18.3763 37.5389 18.3012 37.7278 18.3012C37.9167 18.3012 38.0979 18.3763 38.2315 18.5099C38.3651 18.6436 38.4401 18.8248 38.4401 19.0138ZM47.4469 19.0138C47.4505 19.1095 47.4347 19.2049 47.4006 19.2944C47.3664 19.3839 47.3146 19.4655 47.2482 19.5345C47.1818 19.6035 47.1022 19.6584 47.0141 19.6959C46.926 19.7334 46.8313 19.7528 46.7356 19.7528C46.6398 19.7529 46.5451 19.7336 46.457 19.6963C46.3688 19.6589 46.2891 19.6041 46.2227 19.5352C46.1562 19.4663 46.1042 19.3847 46.07 19.2953C46.0357 19.2059 46.0198 19.1104 46.0233 19.0147C46.0299 18.8304 46.1077 18.6558 46.2404 18.5276C46.373 18.3995 46.5502 18.3278 46.7346 18.3277C46.919 18.3276 47.0963 18.399 47.2292 18.527C47.362 18.6549 47.4401 18.8294 47.4469 19.0138ZM56.4542 19.0138C56.4577 19.1095 56.442 19.2049 56.4078 19.2944C56.3737 19.3839 56.3219 19.4655 56.2555 19.5345C56.1891 19.6035 56.1095 19.6584 56.0214 19.6959C55.9333 19.7334 55.8386 19.7528 55.7428 19.7528C55.6471 19.7529 55.5524 19.7336 55.4642 19.6963C55.3761 19.6589 55.2964 19.6041 55.2299 19.5352C55.1634 19.4663 55.1115 19.3847 55.0772 19.2953C55.043 19.2059 55.0271 19.1104 55.0305 19.0147C55.0371 18.8304 55.115 18.6558 55.2476 18.5276C55.3803 18.3995 55.5575 18.3278 55.7419 18.3277C55.9263 18.3276 56.1036 18.399 56.2364 18.527C56.3693 18.6549 56.4473 18.8294 56.4542 19.0138ZM65.4619 19.0138C65.4619 19.2028 65.3869 19.384 65.2533 19.5176C65.1197 19.6513 64.9385 19.7263 64.7496 19.7263C64.5607 19.7263 64.3795 19.6513 64.2459 19.5176C64.1124 19.384 64.0373 19.2028 64.0373 19.0138C64.0373 18.8248 64.1124 18.6436 64.2459 18.5099C64.3795 18.3763 64.5607 18.3012 64.7496 18.3012C64.9385 18.3012 65.1197 18.3763 65.2533 18.5099C65.3869 18.6436 65.4619 18.8248 65.4619 19.0138ZM74.4692 19.0138C74.4692 19.2028 74.3941 19.384 74.2606 19.5176C74.127 19.6513 73.9458 19.7263 73.7569 19.7263C73.568 19.7263 73.3868 19.6513 73.2532 19.5176C73.1196 19.384 73.0446 19.2028 73.0446 19.0138C73.0446 18.8248 73.1196 18.6436 73.2532 18.5099C73.3868 18.3763 73.568 18.3012 73.7569 18.3012C73.9458 18.3012 74.127 18.3763 74.2606 18.5099C74.3941 18.6436 74.4692 18.8248 74.4692 19.0138ZM83.4764 19.0138C83.4764 19.2028 83.4014 19.384 83.2678 19.5176C83.1342 19.6513 82.953 19.7263 82.7641 19.7263C82.5752 19.7263 82.3941 19.6513 82.2605 19.5176C82.1269 19.384 82.0518 19.2028 82.0518 19.0138C82.0518 18.8248 82.1269 18.6436 82.2605 18.5099C82.3941 18.3763 82.5752 18.3012 82.7641 18.3012C82.953 18.3012 83.1342 18.3763 83.2678 18.5099C83.4014 18.6436 83.4764 18.8248 83.4764 19.0138ZM92.4832 19.0138C92.4832 19.2028 92.4082 19.384 92.2746 19.5176C92.141 19.6513 91.9598 19.7263 91.7709 19.7263C91.582 19.7263 91.4008 19.6513 91.2673 19.5176C91.1337 19.384 91.0586 19.2028 91.0586 19.0138C91.0586 18.8248 91.1337 18.6436 91.2673 18.5099C91.4008 18.3763 91.582 18.3012 91.7709 18.3012C91.9598 18.3012 92.141 18.3763 92.2746 18.5099C92.4082 18.6436 92.4832 18.8248 92.4832 19.0138ZM101.49 19.0138C101.49 19.2028 101.415 19.384 101.282 19.5176C101.148 19.6513 100.967 19.7263 100.778 19.7263C100.589 19.7263 100.408 19.6513 100.275 19.5176C100.141 19.384 100.066 19.2028 100.066 19.0138C100.066 18.8248 100.141 18.6436 100.275 18.5099C100.408 18.3763 100.589 18.3012 100.778 18.3012C100.967 18.3012 101.148 18.3763 101.282 18.5099C101.415 18.6436 101.49 18.8248 101.49 19.0138ZM2.41106 28.1459C2.41459 28.2416 2.3988 28.337 2.36463 28.4265C2.33046 28.5159 2.27862 28.5976 2.2122 28.6665C2.14578 28.7355 2.06614 28.7903 1.97805 28.8278C1.88996 28.8653 1.79522 28.8846 1.69949 28.8847C1.60376 28.8847 1.509 28.8654 1.42089 28.828C1.33277 28.7906 1.2531 28.7358 1.18663 28.6669C1.12016 28.5979 1.06827 28.5163 1.03404 28.4269C0.99981 28.3375 0.983952 28.242 0.987415 28.1463C0.994086 27.962 1.07197 27.7874 1.20469 27.6593C1.3374 27.5312 1.5146 27.4596 1.69901 27.4596C1.88342 27.4595 2.06067 27.531 2.19347 27.659C2.32627 27.787 2.40427 27.9615 2.41106 28.1459ZM11.4183 28.1459C11.4183 28.3349 11.3433 28.5161 11.2097 28.6497C11.0761 28.7834 10.8949 28.8584 10.706 28.8584C10.5171 28.8584 10.3359 28.7834 10.2024 28.6497C10.0688 28.5161 9.99373 28.3349 9.99373 28.1459C9.99373 27.9569 10.0688 27.7757 10.2024 27.642C10.3359 27.5084 10.5171 27.4333 10.706 27.4333C10.8949 27.4333 11.0761 27.5084 11.2097 27.642C11.3433 27.7757 11.4183 27.9569 11.4183 28.1459ZM20.4256 28.1459C20.4256 28.3349 20.3505 28.5161 20.217 28.6497C20.0834 28.7834 19.9022 28.8584 19.7133 28.8584C19.5244 28.8584 19.3432 28.7834 19.2096 28.6497C19.076 28.5161 19.001 28.3349 19.001 28.1459C19.001 27.9569 19.076 27.7757 19.2096 27.642C19.3432 27.5084 19.5244 27.4333 19.7133 27.4333C19.9022 27.4333 20.0834 27.5084 20.217 27.642C20.3505 27.7757 20.4256 27.9569 20.4256 28.1459ZM29.4329 28.1459C29.4329 28.3349 29.3578 28.5161 29.2242 28.6497C29.0906 28.7834 28.9095 28.8584 28.7206 28.8584C28.5316 28.8584 28.3505 28.7834 28.2169 28.6497C28.0833 28.5161 28.0083 28.3349 28.0083 28.1459C28.0083 27.9569 28.0833 27.7757 28.2169 27.642C28.3505 27.5084 28.5316 27.4333 28.7206 27.4333C28.9095 27.4333 29.0906 27.5084 29.2242 27.642C29.3578 27.7757 29.4329 27.9569 29.4329 28.1459ZM38.4401 28.1459C38.4401 28.3349 38.3651 28.5161 38.2315 28.6497C38.0979 28.7834 37.9167 28.8584 37.7278 28.8584C37.5389 28.8584 37.3577 28.7834 37.2241 28.6497C37.0906 28.5161 37.0155 28.3349 37.0155 28.1459C37.0155 27.9569 37.0906 27.7757 37.2241 27.642C37.3577 27.5084 37.5389 27.4333 37.7278 27.4333C37.9167 27.4333 38.0979 27.5084 38.2315 27.642C38.3651 27.7757 38.4401 27.9569 38.4401 28.1459ZM47.4469 28.1459C47.4504 28.2416 47.4346 28.337 47.4005 28.4265C47.3663 28.5159 47.3145 28.5976 47.248 28.6665C47.1816 28.7355 47.102 28.7903 47.0139 28.8278C46.9258 28.8653 46.8311 28.8846 46.7353 28.8847C46.6396 28.8847 46.5448 28.8654 46.4567 28.828C46.3686 28.7906 46.2889 28.7358 46.2225 28.6669C46.156 28.5979 46.1041 28.5163 46.0699 28.4269C46.0357 28.3375 46.0198 28.242 46.0233 28.1463C46.0299 27.962 46.1078 27.7874 46.2405 27.6593C46.3732 27.5312 46.5504 27.4596 46.7349 27.4596C46.9193 27.4595 47.0965 27.531 47.2293 27.659C47.3621 27.787 47.4401 27.9615 47.4469 28.1459ZM56.4542 28.1459C56.4577 28.2416 56.4419 28.337 56.4077 28.4265C56.3736 28.5159 56.3217 28.5976 56.2553 28.6665C56.1889 28.7355 56.1092 28.7903 56.0212 28.8278C55.9331 28.8653 55.8383 28.8846 55.7426 28.8847C55.6469 28.8847 55.5521 28.8654 55.464 28.828C55.3759 28.7906 55.2962 28.7358 55.2297 28.6669C55.1633 28.5979 55.1114 28.5163 55.0771 28.4269C55.0429 28.3375 55.0271 28.242 55.0305 28.1463C55.0372 27.962 55.1151 27.7874 55.2478 27.6593C55.3805 27.5312 55.5577 27.4596 55.7421 27.4596C55.9265 27.4595 56.1038 27.531 56.2366 27.659C56.3694 27.787 56.4474 27.9615 56.4542 28.1459ZM65.4619 28.1459C65.4619 28.3349 65.3869 28.5161 65.2533 28.6497C65.1197 28.7834 64.9385 28.8584 64.7496 28.8584C64.5607 28.8584 64.3795 28.7834 64.2459 28.6497C64.1124 28.5161 64.0373 28.3349 64.0373 28.1459C64.0373 27.9569 64.1124 27.7757 64.2459 27.642C64.3795 27.5084 64.5607 27.4333 64.7496 27.4333C64.9385 27.4333 65.1197 27.5084 65.2533 27.642C65.3869 27.7757 65.4619 27.9569 65.4619 28.1459ZM74.4692 28.1459C74.4692 28.3349 74.3941 28.5161 74.2606 28.6497C74.127 28.7834 73.9458 28.8584 73.7569 28.8584C73.568 28.8584 73.3868 28.7834 73.2532 28.6497C73.1196 28.5161 73.0446 28.3349 73.0446 28.1459C73.0446 27.9569 73.1196 27.7757 73.2532 27.642C73.3868 27.5084 73.568 27.4333 73.7569 27.4333C73.9458 27.4333 74.127 27.5084 74.2606 27.642C74.3941 27.7757 74.4692 27.9569 74.4692 28.1459ZM83.4764 28.1459C83.4764 28.3349 83.4014 28.5161 83.2678 28.6497C83.1342 28.7834 82.953 28.8584 82.7641 28.8584C82.5752 28.8584 82.3941 28.7834 82.2605 28.6497C82.1269 28.5161 82.0518 28.3349 82.0518 28.1459C82.0518 27.9569 82.1269 27.7757 82.2605 27.642C82.3941 27.5084 82.5752 27.4333 82.7641 27.4333C82.953 27.4333 83.1342 27.5084 83.2678 27.642C83.4014 27.7757 83.4764 27.9569 83.4764 28.1459ZM92.4832 28.1459C92.4832 28.3349 92.4082 28.5161 92.2746 28.6497C92.141 28.7834 91.9598 28.8584 91.7709 28.8584C91.582 28.8584 91.4008 28.7834 91.2673 28.6497C91.1337 28.5161 91.0586 28.3349 91.0586 28.1459C91.0586 27.9569 91.1337 27.7757 91.2673 27.642C91.4008 27.5084 91.582 27.4333 91.7709 27.4333C91.9598 27.4333 92.141 27.5084 92.2746 27.642C92.4082 27.7757 92.4832 27.9569 92.4832 28.1459ZM101.49 28.1459C101.49 28.3349 101.415 28.5161 101.282 28.6497C101.148 28.7834 100.967 28.8584 100.778 28.8584C100.589 28.8584 100.408 28.7834 100.275 28.6497C100.141 28.5161 100.066 28.3349 100.066 28.1459C100.066 27.9569 100.141 27.7757 100.275 27.642C100.408 27.5084 100.589 27.4333 100.778 27.4333C100.967 27.4333 101.148 27.5084 101.282 27.642C101.415 27.7757 101.49 27.9569 101.49 28.1459ZM2.41106 37.2775C2.41459 37.3732 2.3988 37.4686 2.36463 37.5581C2.33046 37.6475 2.27862 37.7292 2.2122 37.7981C2.14578 37.8671 2.06614 37.922 1.97805 37.9594C1.88996 37.9969 1.79522 38.0163 1.69949 38.0163C1.60376 38.0163 1.509 37.997 1.42089 37.9596C1.33277 37.9222 1.2531 37.8674 1.18663 37.7985C1.12016 37.7296 1.06827 37.6479 1.03404 37.5585C0.99981 37.4691 0.983952 37.3737 0.987415 37.278C0.994086 37.0936 1.07197 36.919 1.20469 36.7909C1.3374 36.6628 1.5146 36.5912 1.69901 36.5912C1.88342 36.5911 2.06067 36.6626 2.19347 36.7906C2.32627 36.9186 2.40427 37.0931 2.41106 37.2775ZM11.4183 37.2775C11.4183 37.4665 11.3433 37.6477 11.2097 37.7813C11.0761 37.915 10.8949 37.99 10.706 37.99C10.5171 37.99 10.3359 37.915 10.2024 37.7813C10.0688 37.6477 9.99373 37.4665 9.99373 37.2775C9.99373 37.0885 10.0688 36.9073 10.2024 36.7736C10.3359 36.64 10.5171 36.5649 10.706 36.5649C10.8949 36.5649 11.0761 36.64 11.2097 36.7736C11.3433 36.9073 11.4183 37.0885 11.4183 37.2775ZM20.4256 37.2775C20.4256 37.4665 20.3505 37.6477 20.217 37.7813C20.0834 37.915 19.9022 37.99 19.7133 37.99C19.5244 37.99 19.3432 37.915 19.2096 37.7813C19.076 37.6477 19.001 37.4665 19.001 37.2775C19.001 37.0885 19.076 36.9073 19.2096 36.7736C19.3432 36.64 19.5244 36.5649 19.7133 36.5649C19.9022 36.5649 20.0834 36.64 20.217 36.7736C20.3505 36.9073 20.4256 37.0885 20.4256 37.2775ZM29.4329 37.2775C29.4329 37.4665 29.3578 37.6477 29.2242 37.7813C29.0906 37.915 28.9095 37.99 28.7206 37.99C28.5316 37.99 28.3505 37.915 28.2169 37.7813C28.0833 37.6477 28.0083 37.4665 28.0083 37.2775C28.0083 37.0885 28.0833 36.9073 28.2169 36.7736C28.3505 36.64 28.5316 36.5649 28.7206 36.5649C28.9095 36.5649 29.0906 36.64 29.2242 36.7736C29.3578 36.9073 29.4329 37.0885 29.4329 37.2775ZM38.4401 37.2775C38.4401 37.4665 38.3651 37.6477 38.2315 37.7813C38.0979 37.915 37.9167 37.99 37.7278 37.99C37.5389 37.99 37.3577 37.915 37.2241 37.7813C37.0906 37.6477 37.0155 37.4665 37.0155 37.2775C37.0155 37.0885 37.0906 36.9073 37.2241 36.7736C37.3577 36.64 37.5389 36.5649 37.7278 36.5649C37.9167 36.5649 38.0979 36.64 38.2315 36.7736C38.3651 36.9073 38.4401 37.0885 38.4401 37.2775ZM47.4469 37.2775C47.4504 37.3732 47.4346 37.4686 47.4005 37.5581C47.3663 37.6475 47.3145 37.7292 47.248 37.7981C47.1816 37.8671 47.102 37.922 47.0139 37.9594C46.9258 37.9969 46.8311 38.0163 46.7353 38.0163C46.6396 38.0163 46.5448 37.997 46.4567 37.9596C46.3686 37.9222 46.2889 37.8674 46.2225 37.7985C46.156 37.7296 46.1041 37.6479 46.0699 37.5585C46.0357 37.4691 46.0198 37.3737 46.0233 37.278C46.0299 37.0936 46.1078 36.919 46.2405 36.7909C46.3732 36.6628 46.5504 36.5912 46.7349 36.5912C46.9193 36.5911 47.0965 36.6626 47.2293 36.7906C47.3621 36.9186 47.4401 37.0931 47.4469 37.2775ZM56.4542 37.2775C56.4577 37.3732 56.4419 37.4686 56.4077 37.5581C56.3736 37.6475 56.3217 37.7292 56.2553 37.7981C56.1889 37.8671 56.1092 37.922 56.0212 37.9594C55.9331 37.9969 55.8383 38.0163 55.7426 38.0163C55.6469 38.0163 55.5521 37.997 55.464 37.9596C55.3759 37.9222 55.2962 37.8674 55.2297 37.7985C55.1633 37.7296 55.1114 37.6479 55.0771 37.5585C55.0429 37.4691 55.0271 37.3737 55.0305 37.278C55.0372 37.0936 55.1151 36.919 55.2478 36.7909C55.3805 36.6628 55.5577 36.5912 55.7421 36.5912C55.9265 36.5911 56.1038 36.6626 56.2366 36.7906C56.3694 36.9186 56.4474 37.0931 56.4542 37.2775ZM65.4619 37.2775C65.4619 37.4665 65.3869 37.6477 65.2533 37.7813C65.1197 37.915 64.9385 37.99 64.7496 37.99C64.5607 37.99 64.3795 37.915 64.2459 37.7813C64.1124 37.6477 64.0373 37.4665 64.0373 37.2775C64.0373 37.0885 64.1124 36.9073 64.2459 36.7736C64.3795 36.64 64.5607 36.5649 64.7496 36.5649C64.9385 36.5649 65.1197 36.64 65.2533 36.7736C65.3869 36.9073 65.4619 37.0885 65.4619 37.2775ZM74.4692 37.2775C74.4692 37.4665 74.3941 37.6477 74.2606 37.7813C74.127 37.915 73.9458 37.99 73.7569 37.99C73.568 37.99 73.3868 37.915 73.2532 37.7813C73.1196 37.6477 73.0446 37.4665 73.0446 37.2775C73.0446 37.0885 73.1196 36.9073 73.2532 36.7736C73.3868 36.64 73.568 36.5649 73.7569 36.5649C73.9458 36.5649 74.127 36.64 74.2606 36.7736C74.3941 36.9073 74.4692 37.0885 74.4692 37.2775ZM83.4764 37.2775C83.4764 37.4665 83.4014 37.6477 83.2678 37.7813C83.1342 37.915 82.953 37.99 82.7641 37.99C82.5752 37.99 82.3941 37.915 82.2605 37.7813C82.1269 37.6477 82.0518 37.4665 82.0518 37.2775C82.0518 37.0885 82.1269 36.9073 82.2605 36.7736C82.3941 36.64 82.5752 36.5649 82.7641 36.5649C82.953 36.5649 83.1342 36.64 83.2678 36.7736C83.4014 36.9073 83.4764 37.0885 83.4764 37.2775ZM92.4832 37.2775C92.4832 37.4665 92.4082 37.6477 92.2746 37.7813C92.141 37.915 91.9598 37.99 91.7709 37.99C91.582 37.99 91.4008 37.915 91.2673 37.7813C91.1337 37.6477 91.0586 37.4665 91.0586 37.2775C91.0586 37.0885 91.1337 36.9073 91.2673 36.7736C91.4008 36.64 91.582 36.5649 91.7709 36.5649C91.9598 36.5649 92.141 36.64 92.2746 36.7736C92.4082 36.9073 92.4832 37.0885 92.4832 37.2775ZM101.49 37.2775C101.49 37.4665 101.415 37.6477 101.282 37.7813C101.148 37.915 100.967 37.99 100.778 37.99C100.589 37.99 100.408 37.915 100.275 37.7813C100.141 37.6477 100.066 37.4665 100.066 37.2775C100.066 37.0885 100.141 36.9073 100.275 36.7736C100.408 36.64 100.589 36.5649 100.778 36.5649C100.967 36.5649 101.148 36.64 101.282 36.7736C101.415 36.9073 101.49 37.0885 101.49 37.2775ZM2.41106 46.4091C2.41459 46.5048 2.3988 46.6002 2.36463 46.6897C2.33046 46.7791 2.27862 46.8608 2.2122 46.9297C2.14578 46.9987 2.06614 47.0536 1.97805 47.091C1.88996 47.1285 1.79522 47.1479 1.69949 47.1479C1.60376 47.1479 1.509 47.1287 1.42089 47.0912C1.33277 47.0538 1.2531 46.999 1.18663 46.9301C1.12016 46.8612 1.06827 46.7796 1.03404 46.6901C0.99981 46.6007 0.983952 46.5053 0.987415 46.4096C0.994086 46.2252 1.07197 46.0506 1.20469 45.9225C1.3374 45.7945 1.5146 45.7229 1.69901 45.7228C1.88342 45.7227 2.06067 45.7942 2.19347 45.9222C2.32627 46.0502 2.40427 46.2247 2.41106 46.4091ZM11.4183 46.4091C11.4183 46.5981 11.3433 46.7793 11.2097 46.9129C11.0761 47.0466 10.8949 47.1216 10.706 47.1216C10.5171 47.1216 10.3359 47.0466 10.2024 46.9129C10.0688 46.7793 9.99373 46.5981 9.99373 46.4091C9.99373 46.2201 10.0688 46.0389 10.2024 45.9052C10.3359 45.7716 10.5171 45.6965 10.706 45.6965C10.8949 45.6965 11.0761 45.7716 11.2097 45.9052C11.3433 46.0389 11.4183 46.2201 11.4183 46.4091ZM20.4256 46.4091C20.4256 46.5981 20.3505 46.7793 20.217 46.9129C20.0834 47.0466 19.9022 47.1216 19.7133 47.1216C19.5244 47.1216 19.3432 47.0466 19.2096 46.9129C19.076 46.7793 19.001 46.5981 19.001 46.4091C19.001 46.2201 19.076 46.0389 19.2096 45.9052C19.3432 45.7716 19.5244 45.6965 19.7133 45.6965C19.9022 45.6965 20.0834 45.7716 20.217 45.9052C20.3505 46.0389 20.4256 46.2201 20.4256 46.4091ZM29.4329 46.4091C29.4329 46.5981 29.3578 46.7793 29.2242 46.9129C29.0906 47.0466 28.9095 47.1216 28.7206 47.1216C28.5316 47.1216 28.3505 47.0466 28.2169 46.9129C28.0833 46.7793 28.0083 46.5981 28.0083 46.4091C28.0083 46.2201 28.0833 46.0389 28.2169 45.9052C28.3505 45.7716 28.5316 45.6965 28.7206 45.6965C28.9095 45.6965 29.0906 45.7716 29.2242 45.9052C29.3578 46.0389 29.4329 46.2201 29.4329 46.4091ZM38.4401 46.4091C38.4401 46.5981 38.3651 46.7793 38.2315 46.9129C38.0979 47.0466 37.9167 47.1216 37.7278 47.1216C37.5389 47.1216 37.3577 47.0466 37.2241 46.9129C37.0906 46.7793 37.0155 46.5981 37.0155 46.4091C37.0155 46.2201 37.0906 46.0389 37.2241 45.9052C37.3577 45.7716 37.5389 45.6965 37.7278 45.6965C37.9167 45.6965 38.0979 45.7716 38.2315 45.9052C38.3651 46.0389 38.4401 46.2201 38.4401 46.4091ZM47.4469 46.4091C47.4504 46.5048 47.4346 46.6002 47.4005 46.6897C47.3663 46.7791 47.3145 46.8608 47.248 46.9297C47.1816 46.9987 47.102 47.0536 47.0139 47.091C46.9258 47.1285 46.8311 47.1479 46.7353 47.1479C46.6396 47.1479 46.5448 47.1287 46.4567 47.0912C46.3686 47.0538 46.2889 46.999 46.2225 46.9301C46.156 46.8612 46.1041 46.7796 46.0699 46.6901C46.0357 46.6007 46.0198 46.5053 46.0233 46.4096C46.0299 46.2252 46.1078 46.0506 46.2405 45.9225C46.3732 45.7945 46.5504 45.7229 46.7349 45.7228C46.9193 45.7227 47.0965 45.7942 47.2293 45.9222C47.3621 46.0502 47.4401 46.2247 47.4469 46.4091ZM56.4542 46.4091C56.4577 46.5048 56.4419 46.6002 56.4077 46.6897C56.3736 46.7791 56.3217 46.8608 56.2553 46.9297C56.1889 46.9987 56.1092 47.0536 56.0212 47.091C55.9331 47.1285 55.8383 47.1479 55.7426 47.1479C55.6469 47.1479 55.5521 47.1287 55.464 47.0912C55.3759 47.0538 55.2962 46.999 55.2297 46.9301C55.1633 46.8612 55.1114 46.7796 55.0771 46.6901C55.0429 46.6007 55.0271 46.5053 55.0305 46.4096C55.0372 46.2252 55.1151 46.0506 55.2478 45.9225C55.3805 45.7945 55.5577 45.7229 55.7421 45.7228C55.9265 45.7227 56.1038 45.7942 56.2366 45.9222C56.3694 46.0502 56.4474 46.2247 56.4542 46.4091ZM65.4619 46.4091C65.4619 46.5981 65.3869 46.7793 65.2533 46.9129C65.1197 47.0466 64.9385 47.1216 64.7496 47.1216C64.5607 47.1216 64.3795 47.0466 64.2459 46.9129C64.1124 46.7793 64.0373 46.5981 64.0373 46.4091C64.0373 46.2201 64.1124 46.0389 64.2459 45.9052C64.3795 45.7716 64.5607 45.6965 64.7496 45.6965C64.9385 45.6965 65.1197 45.7716 65.2533 45.9052C65.3869 46.0389 65.4619 46.2201 65.4619 46.4091ZM74.4692 46.4091C74.4692 46.5981 74.3941 46.7793 74.2606 46.9129C74.127 47.0466 73.9458 47.1216 73.7569 47.1216C73.568 47.1216 73.3868 47.0466 73.2532 46.9129C73.1196 46.7793 73.0446 46.5981 73.0446 46.4091C73.0446 46.2201 73.1196 46.0389 73.2532 45.9052C73.3868 45.7716 73.568 45.6965 73.7569 45.6965C73.9458 45.6965 74.127 45.7716 74.2606 45.9052C74.3941 46.0389 74.4692 46.2201 74.4692 46.4091ZM83.4764 46.4091C83.4764 46.5981 83.4014 46.7793 83.2678 46.9129C83.1342 47.0466 82.953 47.1216 82.7641 47.1216C82.5752 47.1216 82.3941 47.0466 82.2605 46.9129C82.1269 46.7793 82.0518 46.5981 82.0518 46.4091C82.0518 46.2201 82.1269 46.0389 82.2605 45.9052C82.3941 45.7716 82.5752 45.6965 82.7641 45.6965C82.953 45.6965 83.1342 45.7716 83.2678 45.9052C83.4014 46.0389 83.4764 46.2201 83.4764 46.4091ZM92.4832 46.4091C92.4832 46.5981 92.4082 46.7793 92.2746 46.9129C92.141 47.0466 91.9598 47.1216 91.7709 47.1216C91.582 47.1216 91.4008 47.0466 91.2673 46.9129C91.1337 46.7793 91.0586 46.5981 91.0586 46.4091C91.0586 46.2201 91.1337 46.0389 91.2673 45.9052C91.4008 45.7716 91.582 45.6965 91.7709 45.6965C91.9598 45.6965 92.141 45.7716 92.2746 45.9052C92.4082 46.0389 92.4832 46.2201 92.4832 46.4091ZM101.49 46.4091C101.49 46.5981 101.415 46.7793 101.282 46.9129C101.148 47.0466 100.967 47.1216 100.778 47.1216C100.589 47.1216 100.408 47.0466 100.275 46.9129C100.141 46.7793 100.066 46.5981 100.066 46.4091C100.066 46.2201 100.141 46.0389 100.275 45.9052C100.408 45.7716 100.589 45.6965 100.778 45.6965C100.967 45.6965 101.148 45.7716 101.282 45.9052C101.415 46.0389 101.49 46.2201 101.49 46.4091ZM2.41106 55.5412C2.41106 55.7302 2.33602 55.9114 2.20244 56.045C2.06886 56.1787 1.88768 56.2537 1.69876 56.2537C1.50985 56.2537 1.32867 56.1787 1.19509 56.045C1.06151 55.9114 0.986465 55.7302 0.986465 55.5412C0.986465 55.3522 1.06151 55.171 1.19509 55.0373C1.32867 54.9037 1.50985 54.8286 1.69876 54.8286C1.88768 54.8286 2.06886 54.9037 2.20244 55.0373C2.33602 55.171 2.41106 55.3522 2.41106 55.5412ZM11.4183 55.5412C11.4183 55.6348 11.3998 55.7274 11.3639 55.8138C11.3281 55.9003 11.2756 55.9788 11.2094 56.0449C11.1432 56.111 11.0646 56.1634 10.9782 56.1992C10.8917 56.2349 10.7991 56.2533 10.7056 56.2533C10.612 56.2532 10.5194 56.2347 10.433 56.1988C10.3466 56.163 10.2681 56.1104 10.202 56.0442C10.1359 55.978 10.0835 55.8994 10.0478 55.8129C10.012 55.7265 9.99367 55.6338 9.99373 55.5402C9.99379 55.3512 10.0689 55.17 10.2025 55.0364C10.3362 54.9029 10.5174 54.8279 10.7063 54.8279C10.8952 54.828 11.0763 54.9031 11.2099 55.0368C11.3434 55.1705 11.4184 55.3517 11.4183 55.5407V55.5412ZM20.4256 55.5412C20.4255 55.6348 20.407 55.7275 20.3712 55.8139C20.3353 55.9004 20.2828 55.9789 20.2166 56.0451C20.0828 56.1786 19.9016 56.2536 19.7126 56.2535C19.5236 56.2534 19.3424 56.1782 19.2089 56.0444C19.0753 55.9106 19.0004 55.7293 19.0005 55.5402C19.0006 55.3512 19.0757 55.1699 19.2094 55.0363C19.3431 54.9026 19.5243 54.8276 19.7133 54.8277C19.9023 54.8277 20.0835 54.9029 20.2171 55.0366C20.3506 55.1703 20.4257 55.3517 20.4256 55.5407V55.5412ZM29.4329 55.5412C29.4328 55.6348 29.4143 55.7275 29.3784 55.8139C29.3426 55.9004 29.29 55.9789 29.2238 56.0451C29.0901 56.1786 28.9088 56.2536 28.7198 56.2535C28.5309 56.2534 28.3497 56.1782 28.2161 56.0444C28.0826 55.9106 28.0077 55.7293 28.0078 55.5402C28.0078 55.3512 28.083 55.17 28.2166 55.0364C28.3502 54.9029 28.5314 54.8279 28.7203 54.8279C28.9092 54.828 29.0904 54.9031 29.2239 55.0368C29.3575 55.1705 29.4324 55.3517 29.4324 55.5407L29.4329 55.5412ZM38.4401 55.5412C38.4401 55.6348 38.4216 55.7275 38.3857 55.8139C38.3498 55.9004 38.2973 55.9789 38.2311 56.0451C38.1649 56.1112 38.0863 56.1637 37.9998 56.1994C37.9133 56.2352 37.8207 56.2536 37.7271 56.2535C37.6335 56.2534 37.5409 56.2349 37.4545 56.1991C37.368 56.1632 37.2895 56.1106 37.2234 56.0444C37.1573 55.9782 37.1049 55.8995 37.0691 55.813C37.0334 55.7265 37.015 55.6338 37.015 55.5402C37.0151 55.3512 37.0902 55.17 37.2238 55.0364C37.3575 54.9029 37.5387 54.8279 37.7276 54.8279C37.9165 54.828 38.0977 54.9031 38.2312 55.0368C38.3647 55.1705 38.4397 55.3517 38.4396 55.5407L38.4401 55.5412ZM47.4469 55.5412C47.4469 55.7302 47.3719 55.9114 47.2383 56.045C47.1047 56.1787 46.9235 56.2537 46.7346 56.2537C46.5457 56.2537 46.3645 56.1787 46.2309 56.045C46.0974 55.9114 46.0223 55.7302 46.0223 55.5412C46.0223 55.3522 46.0974 55.171 46.2309 55.0373C46.3645 54.9037 46.5457 54.8286 46.7346 54.8286C46.9235 54.8286 47.1047 54.9037 47.2383 55.0373C47.3719 55.171 47.4469 55.3522 47.4469 55.5412ZM56.4542 55.5412C56.4542 55.7302 56.3791 55.9114 56.2455 56.045C56.112 56.1787 55.9308 56.2537 55.7419 56.2537C55.553 56.2537 55.3718 56.1787 55.2382 56.045C55.1046 55.9114 55.0296 55.7302 55.0296 55.5412C55.0296 55.3522 55.1046 55.171 55.2382 55.0373C55.3718 54.9037 55.553 54.8286 55.7419 54.8286C55.9308 54.8286 56.112 54.9037 56.2455 55.0373C56.3791 55.171 56.4542 55.3522 56.4542 55.5412ZM65.4619 55.5412C65.4619 55.6348 65.4434 55.7275 65.4075 55.8139C65.3716 55.9004 65.3191 55.9789 65.2529 56.0451C65.1867 56.1112 65.1081 56.1637 65.0216 56.1994C64.9351 56.2352 64.8425 56.2536 64.7489 56.2535C64.6553 56.2534 64.5627 56.2349 64.4763 56.1991C64.3898 56.1632 64.3113 56.1106 64.2452 56.0444C64.1791 55.9782 64.1266 55.8995 64.0909 55.813C64.0551 55.7265 64.0368 55.6338 64.0368 55.5402C64.0369 55.3512 64.112 55.1699 64.2457 55.0363C64.3794 54.9026 64.5606 54.8276 64.7496 54.8277C64.9386 54.8277 65.1198 54.9029 65.2534 55.0366C65.387 55.1703 65.462 55.3517 65.4619 55.5407V55.5412ZM74.4692 55.5412C74.4691 55.6348 74.4506 55.7275 74.4148 55.8139C74.3789 55.9004 74.3264 55.9789 74.2601 56.0451C74.1939 56.1112 74.1153 56.1637 74.0289 56.1994C73.9424 56.2352 73.8497 56.2536 73.7562 56.2535C73.6626 56.2534 73.5699 56.2349 73.4835 56.1991C73.3971 56.1632 73.3186 56.1106 73.2525 56.0444C73.1863 55.9782 73.1339 55.8995 73.0982 55.813C73.0624 55.7265 73.044 55.6338 73.0441 55.5402C73.0442 55.3512 73.1193 55.17 73.2529 55.0364C73.3865 54.9029 73.5677 54.8279 73.7566 54.8279C73.9456 54.828 74.1267 54.9031 74.2602 55.0368C74.3938 55.1705 74.4688 55.3517 74.4687 55.5407L74.4692 55.5412ZM83.4764 55.5412C83.4763 55.7303 83.4011 55.9116 83.2673 56.0452C83.1336 56.1789 82.9522 56.2539 82.7632 56.2537C82.5742 56.2536 82.3929 56.1784 82.2593 56.0446C82.1257 55.9107 82.0508 55.7293 82.0509 55.5402C82.0509 55.4466 82.0694 55.3539 82.1052 55.2674C82.1411 55.1809 82.1936 55.1023 82.2598 55.0361C82.326 54.9699 82.4046 54.9174 82.4911 54.8816C82.5776 54.8458 82.6703 54.8274 82.7639 54.8274C82.8575 54.8275 82.9502 54.8459 83.0367 54.8818C83.1231 54.9177 83.2017 54.9702 83.2678 55.0364C83.334 55.1027 83.3865 55.1813 83.4223 55.2678C83.4581 55.3543 83.4765 55.4471 83.4764 55.5407V55.5412ZM92.4832 55.5412C92.4831 55.7302 92.4079 55.9114 92.2743 56.0449C92.1406 56.1784 91.9594 56.2534 91.7705 56.2533C91.5815 56.2531 91.4004 56.1779 91.2669 56.0442C91.1334 55.9105 91.0585 55.7292 91.0586 55.5402C91.0587 55.3512 91.1338 55.17 91.2674 55.0364C91.4011 54.9029 91.5823 54.8279 91.7712 54.8279C91.9601 54.828 92.1412 54.9031 92.2748 55.0368C92.4083 55.1705 92.4833 55.3517 92.4832 55.5407V55.5412ZM101.49 55.5412C101.49 55.6348 101.472 55.7275 101.436 55.8139C101.4 55.9004 101.348 55.9789 101.281 56.0451C101.215 56.1112 101.137 56.1637 101.05 56.1994C100.964 56.2352 100.871 56.2536 100.777 56.2535C100.684 56.2534 100.591 56.2349 100.505 56.1991C100.418 56.1632 100.34 56.1106 100.274 56.0444C100.208 55.9782 100.155 55.8995 100.119 55.813C100.084 55.7265 100.065 55.6338 100.065 55.5402C100.065 55.4466 100.084 55.3539 100.12 55.2675C100.156 55.181 100.208 55.1024 100.274 55.0363C100.34 54.9701 100.419 54.9176 100.505 54.8818C100.592 54.8461 100.685 54.8276 100.778 54.8277C100.872 54.8277 100.964 54.8462 101.051 54.882C101.137 54.9179 101.216 54.9704 101.282 55.0366C101.348 55.1028 101.401 55.1814 101.436 55.2679C101.472 55.3544 101.491 55.4471 101.49 55.5407V55.5412ZM2.41106 64.6723C2.41106 64.8613 2.33602 65.0425 2.20244 65.1762C2.06886 65.3098 1.88768 65.3849 1.69876 65.3849C1.50985 65.3849 1.32867 65.3098 1.19509 65.1762C1.06151 65.0425 0.986465 64.8613 0.986465 64.6723C0.986465 64.4833 1.06151 64.3021 1.19509 64.1685C1.32867 64.0348 1.50985 63.9598 1.69876 63.9598C1.88768 63.9598 2.06886 64.0348 2.20244 64.1685C2.33602 64.3021 2.41106 64.4833 2.41106 64.6723ZM11.4183 64.6723C11.4183 64.8613 11.3433 65.0425 11.2097 65.1762C11.0761 65.3098 10.8949 65.3849 10.706 65.3849C10.5171 65.3849 10.3359 65.3098 10.2024 65.1762C10.0688 65.0425 9.99373 64.8613 9.99373 64.6723C9.99373 64.4833 10.0688 64.3021 10.2024 64.1685C10.3359 64.0348 10.5171 63.9598 10.706 63.9598C10.8949 63.9598 11.0761 64.0348 11.2097 64.1685C11.3433 64.3021 11.4183 64.4833 11.4183 64.6723ZM20.4256 64.6723C20.4256 64.8614 20.3505 65.0427 20.2169 65.1763C20.0833 65.31 19.902 65.3851 19.7131 65.3851C19.5241 65.3851 19.3428 65.31 19.2092 65.1763C19.0756 65.0427 19.0005 64.8614 19.0005 64.6723C19.0005 64.4833 19.0756 64.302 19.2092 64.1683C19.3428 64.0346 19.5241 63.9595 19.7131 63.9595C19.902 63.9595 20.0833 64.0346 20.2169 64.1683C20.3505 64.302 20.4256 64.4833 20.4256 64.6723ZM29.4329 64.6723C29.4329 64.8614 29.3578 65.0427 29.2242 65.1763C29.0905 65.31 28.9093 65.3851 28.7203 65.3851C28.5313 65.3851 28.3501 65.31 28.2165 65.1763C28.0829 65.0427 28.0078 64.8614 28.0078 64.6723C28.0078 64.4833 28.0828 64.3021 28.2164 64.1685C28.35 64.0348 28.5312 63.9598 28.7201 63.9598C28.909 63.9598 29.0902 64.0348 29.2238 64.1685C29.3573 64.3021 29.4324 64.4833 29.4324 64.6723H29.4329ZM38.4401 64.6723C38.4401 64.8614 38.365 65.0427 38.2314 65.1763C38.0978 65.31 37.9166 65.3851 37.7276 65.3851C37.5386 65.3851 37.3574 65.31 37.2237 65.1763C37.0901 65.0427 37.015 64.8614 37.015 64.6723C37.015 64.4833 37.0901 64.3021 37.2237 64.1685C37.3573 64.0348 37.5384 63.9598 37.7273 63.9598C37.9163 63.9598 38.0974 64.0348 38.231 64.1685C38.3646 64.3021 38.4396 64.4833 38.4396 64.6723H38.4401ZM47.4469 64.6723C47.4469 64.8613 47.3719 65.0425 47.2383 65.1762C47.1047 65.3098 46.9235 65.3849 46.7346 65.3849C46.5457 65.3849 46.3645 65.3098 46.2309 65.1762C46.0974 65.0425 46.0223 64.8613 46.0223 64.6723C46.0223 64.4833 46.0974 64.3021 46.2309 64.1685C46.3645 64.0348 46.5457 63.9598 46.7346 63.9598C46.9235 63.9598 47.1047 64.0348 47.2383 64.1685C47.3719 64.3021 47.4469 64.4833 47.4469 64.6723ZM56.4542 64.6723C56.4542 64.8613 56.3791 65.0425 56.2455 65.1762C56.112 65.3098 55.9308 65.3849 55.7419 65.3849C55.553 65.3849 55.3718 65.3098 55.2382 65.1762C55.1046 65.0425 55.0296 64.8613 55.0296 64.6723C55.0296 64.4833 55.1046 64.3021 55.2382 64.1685C55.3718 64.0348 55.553 63.9598 55.7419 63.9598C55.9308 63.9598 56.112 64.0348 56.2455 64.1685C56.3791 64.3021 56.4542 64.4833 56.4542 64.6723ZM65.4619 64.6723C65.4619 64.8614 65.3868 65.0427 65.2532 65.1763C65.1196 65.31 64.9384 65.3851 64.7494 65.3851C64.5604 65.3851 64.3792 65.31 64.2455 65.1763C64.1119 65.0427 64.0368 64.8614 64.0368 64.6723C64.0368 64.4833 64.1119 64.302 64.2455 64.1683C64.3792 64.0346 64.5604 63.9595 64.7494 63.9595C64.9384 63.9595 65.1196 64.0346 65.2532 64.1683C65.3868 64.302 65.4619 64.4833 65.4619 64.6723ZM74.4692 64.6723C74.4692 64.8614 74.3941 65.0427 74.2605 65.1763C74.1269 65.31 73.9456 65.3851 73.7566 65.3851C73.5677 65.3851 73.3864 65.31 73.2528 65.1763C73.1192 65.0427 73.0441 64.8614 73.0441 64.6723C73.0441 64.4833 73.1191 64.3021 73.2527 64.1685C73.3863 64.0348 73.5675 63.9598 73.7564 63.9598C73.9453 63.9598 74.1265 64.0348 74.2601 64.1685C74.3937 64.3021 74.4687 64.4833 74.4687 64.6723H74.4692ZM83.4764 64.6723C83.4764 64.8614 83.4013 65.0428 83.2677 65.1765C83.134 65.3102 82.9527 65.3853 82.7637 65.3853C82.5746 65.3853 82.3933 65.3102 82.2597 65.1765C82.126 65.0428 82.0509 64.8614 82.0509 64.6723C82.0509 64.4832 82.126 64.3018 82.2597 64.1681C82.3933 64.0344 82.5746 63.9593 82.7637 63.9593C82.9527 63.9593 83.134 64.0344 83.2677 64.1681C83.4013 64.3018 83.4764 64.4832 83.4764 64.6723ZM92.4832 64.6723C92.4832 64.8613 92.4082 65.0425 92.2746 65.1762C92.141 65.3098 91.9598 65.3849 91.7709 65.3849C91.582 65.3849 91.4008 65.3098 91.2673 65.1762C91.1337 65.0425 91.0586 64.8613 91.0586 64.6723C91.0586 64.4833 91.1337 64.3021 91.2673 64.1685C91.4008 64.0348 91.582 63.9598 91.7709 63.9598C91.9598 63.9598 92.141 64.0348 92.2746 64.1685C92.4082 64.3021 92.4832 64.4833 92.4832 64.6723ZM101.49 64.6723C101.49 64.8614 101.415 65.0427 101.282 65.1763C101.148 65.31 100.967 65.3851 100.778 65.3851C100.589 65.3851 100.408 65.31 100.274 65.1763C100.14 65.0427 100.065 64.8614 100.065 64.6723C100.065 64.4833 100.14 64.302 100.274 64.1683C100.408 64.0346 100.589 63.9595 100.778 63.9595C100.967 63.9595 101.148 64.0346 101.282 64.1683C101.415 64.302 101.49 64.4833 101.49 64.6723ZM2.41106 73.8039C2.41459 73.8996 2.3988 73.9951 2.36463 74.0845C2.33046 74.174 2.27862 74.2556 2.2122 74.3246C2.14578 74.3935 2.06614 74.4484 1.97805 74.4859C1.88996 74.5234 1.79522 74.5427 1.69949 74.5427C1.60376 74.5428 1.509 74.5235 1.42089 74.4861C1.33277 74.4486 1.2531 74.3938 1.18663 74.3249C1.12016 74.256 1.06827 74.1744 1.03404 74.085C0.99981 73.9955 0.983952 73.9001 0.987415 73.8044C0.994086 73.62 1.07197 73.4455 1.20469 73.3174C1.3374 73.1893 1.5146 73.1177 1.69901 73.1176C1.88342 73.1176 2.06067 73.1891 2.19347 73.317C2.32627 73.445 2.40427 73.6196 2.41106 73.8039ZM11.4183 73.8039C11.4183 73.9929 11.3433 74.1741 11.2097 74.3078C11.0761 74.4414 10.8949 74.5165 10.706 74.5165C10.5171 74.5165 10.3359 74.4414 10.2024 74.3078C10.0688 74.1741 9.99373 73.9929 9.99373 73.8039C9.99373 73.615 10.0688 73.4337 10.2024 73.3001C10.3359 73.1664 10.5171 73.0914 10.706 73.0914C10.8949 73.0914 11.0761 73.1664 11.2097 73.3001C11.3433 73.4337 11.4183 73.615 11.4183 73.8039ZM20.4256 73.8039C20.4256 73.9929 20.3505 74.1741 20.217 74.3078C20.0834 74.4414 19.9022 74.5165 19.7133 74.5165C19.5244 74.5165 19.3432 74.4414 19.2096 74.3078C19.076 74.1741 19.001 73.9929 19.001 73.8039C19.001 73.615 19.076 73.4337 19.2096 73.3001C19.3432 73.1664 19.5244 73.0914 19.7133 73.0914C19.9022 73.0914 20.0834 73.1664 20.217 73.3001C20.3505 73.4337 20.4256 73.615 20.4256 73.8039ZM29.4329 73.8039C29.4329 73.9929 29.3578 74.1741 29.2242 74.3078C29.0906 74.4414 28.9095 74.5165 28.7206 74.5165C28.5316 74.5165 28.3505 74.4414 28.2169 74.3078C28.0833 74.1741 28.0083 73.9929 28.0083 73.8039C28.0083 73.615 28.0833 73.4337 28.2169 73.3001C28.3505 73.1664 28.5316 73.0914 28.7206 73.0914C28.9095 73.0914 29.0906 73.1664 29.2242 73.3001C29.3578 73.4337 29.4329 73.615 29.4329 73.8039ZM38.4401 73.8039C38.4401 73.9929 38.3651 74.1741 38.2315 74.3078C38.0979 74.4414 37.9167 74.5165 37.7278 74.5165C37.5389 74.5165 37.3577 74.4414 37.2241 74.3078C37.0906 74.1741 37.0155 73.9929 37.0155 73.8039C37.0155 73.615 37.0906 73.4337 37.2241 73.3001C37.3577 73.1664 37.5389 73.0914 37.7278 73.0914C37.9167 73.0914 38.0979 73.1664 38.2315 73.3001C38.3651 73.4337 38.4401 73.615 38.4401 73.8039ZM47.4469 73.8039C47.4504 73.8996 47.4346 73.9951 47.4005 74.0845C47.3663 74.174 47.3145 74.2556 47.248 74.3246C47.1816 74.3935 47.102 74.4484 47.0139 74.4859C46.9258 74.5234 46.8311 74.5427 46.7353 74.5427C46.6396 74.5428 46.5448 74.5235 46.4567 74.4861C46.3686 74.4486 46.2889 74.3938 46.2225 74.3249C46.156 74.256 46.1041 74.1744 46.0699 74.085C46.0357 73.9955 46.0198 73.9001 46.0233 73.8044C46.0299 73.62 46.1078 73.4455 46.2405 73.3174C46.3732 73.1893 46.5504 73.1177 46.7349 73.1176C46.9193 73.1176 47.0965 73.1891 47.2293 73.317C47.3621 73.445 47.4401 73.6196 47.4469 73.8039ZM56.4542 73.8039C56.4577 73.8996 56.4419 73.9951 56.4077 74.0845C56.3736 74.174 56.3217 74.2556 56.2553 74.3246C56.1889 74.3935 56.1092 74.4484 56.0212 74.4859C55.9331 74.5234 55.8383 74.5427 55.7426 74.5427C55.6469 74.5428 55.5521 74.5235 55.464 74.4861C55.3759 74.4486 55.2962 74.3938 55.2297 74.3249C55.1633 74.256 55.1114 74.1744 55.0771 74.085C55.0429 73.9955 55.0271 73.9001 55.0305 73.8044C55.0372 73.62 55.1151 73.4455 55.2478 73.3174C55.3805 73.1893 55.5577 73.1177 55.7421 73.1176C55.9265 73.1176 56.1038 73.1891 56.2366 73.317C56.3694 73.445 56.4474 73.6196 56.4542 73.8039ZM65.4619 73.8039C65.4619 73.9929 65.3869 74.1741 65.2533 74.3078C65.1197 74.4414 64.9385 74.5165 64.7496 74.5165C64.5607 74.5165 64.3795 74.4414 64.2459 74.3078C64.1124 74.1741 64.0373 73.9929 64.0373 73.8039C64.0373 73.615 64.1124 73.4337 64.2459 73.3001C64.3795 73.1664 64.5607 73.0914 64.7496 73.0914C64.9385 73.0914 65.1197 73.1664 65.2533 73.3001C65.3869 73.4337 65.4619 73.615 65.4619 73.8039ZM74.4692 73.8039C74.4692 73.9929 74.3941 74.1741 74.2606 74.3078C74.127 74.4414 73.9458 74.5165 73.7569 74.5165C73.568 74.5165 73.3868 74.4414 73.2532 74.3078C73.1196 74.1741 73.0446 73.9929 73.0446 73.8039C73.0446 73.615 73.1196 73.4337 73.2532 73.3001C73.3868 73.1664 73.568 73.0914 73.7569 73.0914C73.9458 73.0914 74.127 73.1664 74.2606 73.3001C74.3941 73.4337 74.4692 73.615 74.4692 73.8039ZM83.4764 73.8039C83.4764 73.9929 83.4014 74.1741 83.2678 74.3078C83.1342 74.4414 82.953 74.5165 82.7641 74.5165C82.5752 74.5165 82.3941 74.4414 82.2605 74.3078C82.1269 74.1741 82.0518 73.9929 82.0518 73.8039C82.0518 73.615 82.1269 73.4337 82.2605 73.3001C82.3941 73.1664 82.5752 73.0914 82.7641 73.0914C82.953 73.0914 83.1342 73.1664 83.2678 73.3001C83.4014 73.4337 83.4764 73.615 83.4764 73.8039ZM92.4832 73.8039C92.4832 73.9929 92.4082 74.1741 92.2746 74.3078C92.141 74.4414 91.9598 74.5165 91.7709 74.5165C91.582 74.5165 91.4008 74.4414 91.2673 74.3078C91.1337 74.1741 91.0586 73.9929 91.0586 73.8039C91.0586 73.615 91.1337 73.4337 91.2673 73.3001C91.4008 73.1664 91.582 73.0914 91.7709 73.0914C91.9598 73.0914 92.141 73.1664 92.2746 73.3001C92.4082 73.4337 92.4832 73.615 92.4832 73.8039ZM101.49 73.8039C101.49 73.9929 101.415 74.1741 101.282 74.3078C101.148 74.4414 100.967 74.5165 100.778 74.5165C100.589 74.5165 100.408 74.4414 100.275 74.3078C100.141 74.1741 100.066 73.9929 100.066 73.8039C100.066 73.615 100.141 73.4337 100.275 73.3001C100.408 73.1664 100.589 73.0914 100.778 73.0914C100.967 73.0914 101.148 73.1664 101.282 73.3001C101.415 73.4337 101.49 73.615 101.49 73.8039ZM2.41106 82.9355C2.41462 83.0312 2.39886 83.1267 2.36472 83.2161C2.33058 83.3056 2.27877 83.3873 2.21237 83.4563C2.14597 83.5252 2.06635 83.5801 1.97827 83.6176C1.8902 83.6551 1.79546 83.6745 1.69973 83.6746C1.604 83.6746 1.50924 83.6554 1.42111 83.618C1.33298 83.5806 1.2533 83.5258 1.18681 83.4569C1.12032 83.388 1.06839 83.3064 1.03413 83.217C0.999874 83.1276 0.983984 83.0322 0.987415 82.9365C0.994023 82.7521 1.07185 82.5775 1.20452 82.4494C1.3372 82.3213 1.51437 82.2496 1.69878 82.2495C1.88319 82.2493 2.06047 82.3208 2.19331 82.4487C2.32615 82.5767 2.40421 82.7512 2.41106 82.9355ZM11.4183 82.9355C11.4183 83.1245 11.3433 83.3058 11.2097 83.4394C11.0761 83.573 10.8949 83.6481 10.706 83.6481C10.5171 83.6481 10.3359 83.573 10.2024 83.4394C10.0688 83.3058 9.99373 83.1245 9.99373 82.9355C9.99373 82.7466 10.0688 82.5653 10.2024 82.4317C10.3359 82.2981 10.5171 82.223 10.706 82.223C10.8949 82.223 11.0761 82.2981 11.2097 82.4317C11.3433 82.5653 11.4183 82.7466 11.4183 82.9355ZM20.4256 82.9355C20.4256 83.1245 20.3505 83.3058 20.217 83.4394C20.0834 83.573 19.9022 83.6481 19.7133 83.6481C19.5244 83.6481 19.3432 83.573 19.2096 83.4394C19.076 83.3058 19.001 83.1245 19.001 82.9355C19.001 82.7466 19.076 82.5653 19.2096 82.4317C19.3432 82.2981 19.5244 82.223 19.7133 82.223C19.9022 82.223 20.0834 82.2981 20.217 82.4317C20.3505 82.5653 20.4256 82.7466 20.4256 82.9355ZM29.4329 82.9355C29.4329 83.1245 29.3578 83.3058 29.2242 83.4394C29.0906 83.573 28.9095 83.6481 28.7206 83.6481C28.5316 83.6481 28.3505 83.573 28.2169 83.4394C28.0833 83.3058 28.0083 83.1245 28.0083 82.9355C28.0083 82.7466 28.0833 82.5653 28.2169 82.4317C28.3505 82.2981 28.5316 82.223 28.7206 82.223C28.9095 82.223 29.0906 82.2981 29.2242 82.4317C29.3578 82.5653 29.4329 82.7466 29.4329 82.9355ZM38.4401 82.9355C38.4401 83.1245 38.3651 83.3058 38.2315 83.4394C38.0979 83.573 37.9167 83.6481 37.7278 83.6481C37.5389 83.6481 37.3577 83.573 37.2241 83.4394C37.0906 83.3058 37.0155 83.1245 37.0155 82.9355C37.0155 82.7466 37.0906 82.5653 37.2241 82.4317C37.3577 82.2981 37.5389 82.223 37.7278 82.223C37.9167 82.223 38.0979 82.2981 38.2315 82.4317C38.3651 82.5653 38.4401 82.7466 38.4401 82.9355ZM47.4469 82.9355C47.4505 83.0312 47.4347 83.1267 47.4006 83.2161C47.3664 83.3056 47.3146 83.3873 47.2482 83.4563C47.1818 83.5252 47.1022 83.5801 47.0141 83.6176C46.926 83.6551 46.8313 83.6745 46.7356 83.6746C46.6398 83.6746 46.5451 83.6554 46.457 83.618C46.3688 83.5806 46.2891 83.5258 46.2227 83.4569C46.1562 83.388 46.1042 83.3064 46.07 83.217C46.0357 83.1276 46.0198 83.0322 46.0233 82.9365C46.0299 82.7521 46.1077 82.5775 46.2404 82.4494C46.373 82.3213 46.5502 82.2496 46.7346 82.2495C46.919 82.2493 47.0963 82.3208 47.2292 82.4487C47.362 82.5767 47.4401 82.7512 47.4469 82.9355ZM56.4542 82.9355C56.4577 83.0312 56.442 83.1267 56.4078 83.2161C56.3737 83.3056 56.3219 83.3873 56.2555 83.4563C56.1891 83.5252 56.1095 83.5801 56.0214 83.6176C55.9333 83.6551 55.8386 83.6745 55.7428 83.6746C55.6471 83.6746 55.5524 83.6554 55.4642 83.618C55.3761 83.5806 55.2964 83.5258 55.2299 83.4569C55.1634 83.388 55.1115 83.3064 55.0772 83.217C55.043 83.1276 55.0271 83.0322 55.0305 82.9365C55.0371 82.7521 55.115 82.5775 55.2476 82.4494C55.3803 82.3213 55.5575 82.2496 55.7419 82.2495C55.9263 82.2493 56.1036 82.3208 56.2364 82.4487C56.3693 82.5767 56.4473 82.7512 56.4542 82.9355ZM65.4619 82.9355C65.4619 83.1245 65.3869 83.3058 65.2533 83.4394C65.1197 83.573 64.9385 83.6481 64.7496 83.6481C64.5607 83.6481 64.3795 83.573 64.2459 83.4394C64.1124 83.3058 64.0373 83.1245 64.0373 82.9355C64.0373 82.7466 64.1124 82.5653 64.2459 82.4317C64.3795 82.2981 64.5607 82.223 64.7496 82.223C64.9385 82.223 65.1197 82.2981 65.2533 82.4317C65.3869 82.5653 65.4619 82.7466 65.4619 82.9355ZM74.4692 82.9355C74.4692 83.1245 74.3941 83.3058 74.2606 83.4394C74.127 83.573 73.9458 83.6481 73.7569 83.6481C73.568 83.6481 73.3868 83.573 73.2532 83.4394C73.1196 83.3058 73.0446 83.1245 73.0446 82.9355C73.0446 82.7466 73.1196 82.5653 73.2532 82.4317C73.3868 82.2981 73.568 82.223 73.7569 82.223C73.9458 82.223 74.127 82.2981 74.2606 82.4317C74.3941 82.5653 74.4692 82.7466 74.4692 82.9355ZM83.4764 82.9355C83.4764 83.1245 83.4014 83.3058 83.2678 83.4394C83.1342 83.573 82.953 83.6481 82.7641 83.6481C82.5752 83.6481 82.3941 83.573 82.2605 83.4394C82.1269 83.3058 82.0518 83.1245 82.0518 82.9355C82.0518 82.7466 82.1269 82.5653 82.2605 82.4317C82.3941 82.2981 82.5752 82.223 82.7641 82.223C82.953 82.223 83.1342 82.2981 83.2678 82.4317C83.4014 82.5653 83.4764 82.7466 83.4764 82.9355ZM92.4832 82.9355C92.4832 83.1245 92.4082 83.3058 92.2746 83.4394C92.141 83.573 91.9598 83.6481 91.7709 83.6481C91.582 83.6481 91.4008 83.573 91.2673 83.4394C91.1337 83.3058 91.0586 83.1245 91.0586 82.9355C91.0586 82.7466 91.1337 82.5653 91.2673 82.4317C91.4008 82.2981 91.582 82.223 91.7709 82.223C91.9598 82.223 92.141 82.2981 92.2746 82.4317C92.4082 82.5653 92.4832 82.7466 92.4832 82.9355ZM101.49 82.9355C101.49 83.1245 101.415 83.3058 101.282 83.4394C101.148 83.573 100.967 83.6481 100.778 83.6481C100.589 83.6481 100.408 83.573 100.275 83.4394C100.141 83.3058 100.066 83.1245 100.066 82.9355C100.066 82.7466 100.141 82.5653 100.275 82.4317C100.408 82.2981 100.589 82.223 100.778 82.223C100.967 82.223 101.148 82.2981 101.282 82.4317C101.415 82.5653 101.49 82.7466 101.49 82.9355ZM2.41106 92.0672C2.41462 92.1628 2.39886 92.2583 2.36472 92.3477C2.33058 92.4372 2.27877 92.5189 2.21237 92.5879C2.14597 92.6568 2.06635 92.7117 1.97827 92.7492C1.8902 92.7868 1.79546 92.8061 1.69973 92.8062C1.604 92.8063 1.50924 92.787 1.42111 92.7496C1.33298 92.7122 1.2533 92.6574 1.18681 92.5885C1.12032 92.5197 1.06839 92.438 1.03413 92.3486C0.999874 92.2592 0.983984 92.1638 0.987415 92.0681C0.994023 91.8837 1.07185 91.7091 1.20452 91.581C1.3372 91.4529 1.51437 91.3812 1.69878 91.3811C1.88319 91.381 2.06047 91.4524 2.19331 91.5803C2.32615 91.7083 2.40421 91.8828 2.41106 92.0672ZM11.4183 92.0672C11.4183 92.2561 11.3433 92.4374 11.2097 92.571C11.0761 92.7046 10.8949 92.7797 10.706 92.7797C10.5171 92.7797 10.3359 92.7046 10.2024 92.571C10.0688 92.4374 9.99373 92.2561 9.99373 92.0672C9.99373 91.8782 10.0688 91.6969 10.2024 91.5633C10.3359 91.4297 10.5171 91.3546 10.706 91.3546C10.8949 91.3546 11.0761 91.4297 11.2097 91.5633C11.3433 91.6969 11.4183 91.8782 11.4183 92.0672ZM20.4256 92.0672C20.4256 92.2561 20.3505 92.4374 20.217 92.571C20.0834 92.7046 19.9022 92.7797 19.7133 92.7797C19.5244 92.7797 19.3432 92.7046 19.2096 92.571C19.076 92.4374 19.001 92.2561 19.001 92.0672C19.001 91.8782 19.076 91.6969 19.2096 91.5633C19.3432 91.4297 19.5244 91.3546 19.7133 91.3546C19.9022 91.3546 20.0834 91.4297 20.217 91.5633C20.3505 91.6969 20.4256 91.8782 20.4256 92.0672ZM29.4329 92.0672C29.4329 92.2561 29.3578 92.4374 29.2242 92.571C29.0906 92.7046 28.9095 92.7797 28.7206 92.7797C28.5316 92.7797 28.3505 92.7046 28.2169 92.571C28.0833 92.4374 28.0083 92.2561 28.0083 92.0672C28.0083 91.8782 28.0833 91.6969 28.2169 91.5633C28.3505 91.4297 28.5316 91.3546 28.7206 91.3546C28.9095 91.3546 29.0906 91.4297 29.2242 91.5633C29.3578 91.6969 29.4329 91.8782 29.4329 92.0672ZM38.4401 92.0672C38.4401 92.2561 38.3651 92.4374 38.2315 92.571C38.0979 92.7046 37.9167 92.7797 37.7278 92.7797C37.5389 92.7797 37.3577 92.7046 37.2241 92.571C37.0906 92.4374 37.0155 92.2561 37.0155 92.0672C37.0155 91.8782 37.0906 91.6969 37.2241 91.5633C37.3577 91.4297 37.5389 91.3546 37.7278 91.3546C37.9167 91.3546 38.0979 91.4297 38.2315 91.5633C38.3651 91.6969 38.4401 91.8782 38.4401 92.0672ZM47.4469 92.0672C47.4505 92.1628 47.4347 92.2583 47.4006 92.3477C47.3664 92.4372 47.3146 92.5189 47.2482 92.5879C47.1818 92.6568 47.1022 92.7117 47.0141 92.7492C46.926 92.7868 46.8313 92.8061 46.7356 92.8062C46.6398 92.8063 46.5451 92.787 46.457 92.7496C46.3688 92.7122 46.2891 92.6574 46.2227 92.5885C46.1562 92.5197 46.1042 92.438 46.07 92.3486C46.0357 92.2592 46.0198 92.1638 46.0233 92.0681C46.0299 91.8837 46.1077 91.7091 46.2404 91.581C46.373 91.4529 46.5502 91.3812 46.7346 91.3811C46.919 91.381 47.0963 91.4524 47.2292 91.5803C47.362 91.7083 47.4401 91.8828 47.4469 92.0672ZM56.4542 92.0672C56.4577 92.1628 56.442 92.2583 56.4078 92.3477C56.3737 92.4372 56.3219 92.5189 56.2555 92.5879C56.1891 92.6568 56.1095 92.7117 56.0214 92.7492C55.9333 92.7868 55.8386 92.8061 55.7428 92.8062C55.6471 92.8063 55.5524 92.787 55.4642 92.7496C55.3761 92.7122 55.2964 92.6574 55.2299 92.5885C55.1634 92.5197 55.1115 92.438 55.0772 92.3486C55.043 92.2592 55.0271 92.1638 55.0305 92.0681C55.0371 91.8837 55.115 91.7091 55.2476 91.581C55.3803 91.4529 55.5575 91.3812 55.7419 91.3811C55.9263 91.381 56.1036 91.4524 56.2364 91.5803C56.3693 91.7083 56.4473 91.8828 56.4542 92.0672ZM65.4619 92.0672C65.4619 92.2561 65.3869 92.4374 65.2533 92.571C65.1197 92.7046 64.9385 92.7797 64.7496 92.7797C64.5607 92.7797 64.3795 92.7046 64.2459 92.571C64.1124 92.4374 64.0373 92.2561 64.0373 92.0672C64.0373 91.8782 64.1124 91.6969 64.2459 91.5633C64.3795 91.4297 64.5607 91.3546 64.7496 91.3546C64.9385 91.3546 65.1197 91.4297 65.2533 91.5633C65.3869 91.6969 65.4619 91.8782 65.4619 92.0672ZM74.4692 92.0672C74.4692 92.2561 74.3941 92.4374 74.2606 92.571C74.127 92.7046 73.9458 92.7797 73.7569 92.7797C73.568 92.7797 73.3868 92.7046 73.2532 92.571C73.1196 92.4374 73.0446 92.2561 73.0446 92.0672C73.0446 91.8782 73.1196 91.6969 73.2532 91.5633C73.3868 91.4297 73.568 91.3546 73.7569 91.3546C73.9458 91.3546 74.127 91.4297 74.2606 91.5633C74.3941 91.6969 74.4692 91.8782 74.4692 92.0672ZM83.4764 92.0672C83.4764 92.2561 83.4014 92.4374 83.2678 92.571C83.1342 92.7046 82.953 92.7797 82.7641 92.7797C82.5752 92.7797 82.3941 92.7046 82.2605 92.571C82.1269 92.4374 82.0518 92.2561 82.0518 92.0672C82.0518 91.8782 82.1269 91.6969 82.2605 91.5633C82.3941 91.4297 82.5752 91.3546 82.7641 91.3546C82.953 91.3546 83.1342 91.4297 83.2678 91.5633C83.4014 91.6969 83.4764 91.8782 83.4764 92.0672ZM92.4832 92.0672C92.4832 92.2561 92.4082 92.4374 92.2746 92.571C92.141 92.7046 91.9598 92.7797 91.7709 92.7797C91.582 92.7797 91.4008 92.7046 91.2673 92.571C91.1337 92.4374 91.0586 92.2561 91.0586 92.0672C91.0586 91.8782 91.1337 91.6969 91.2673 91.5633C91.4008 91.4297 91.582 91.3546 91.7709 91.3546C91.9598 91.3546 92.141 91.4297 92.2746 91.5633C92.4082 91.6969 92.4832 91.8782 92.4832 92.0672ZM101.49 92.0672C101.49 92.2561 101.415 92.4374 101.282 92.571C101.148 92.7046 100.967 92.7797 100.778 92.7797C100.589 92.7797 100.408 92.7046 100.275 92.571C100.141 92.4374 100.066 92.2561 100.066 92.0672C100.066 91.8782 100.141 91.6969 100.275 91.5633C100.408 91.4297 100.589 91.3546 100.778 91.3546C100.967 91.3546 101.148 91.4297 101.282 91.5633C101.415 91.6969 101.49 91.8782 101.49 92.0672Z" fill="#00F0FF"/>
</svg>
