<svg width="101" height="93" viewBox="0 0 101 93" fill="none" xmlns="http://www.w3.org/2000/svg">
<path d="M1.834 0.826647C1.834 1.01569 1.75894 1.19699 1.62532 1.33066C1.49169 1.46434 1.31044 1.53945 1.12147 1.53945C0.93249 1.53945 0.751244 1.46434 0.617617 1.33066C0.48399 1.19699 0.408936 1.01569 0.408936 0.826647C0.408936 0.637666 0.483977 0.456421 0.617559 0.322791C0.751141 0.189161 0.932322 0.114093 1.12124 0.114093C1.31015 0.114093 1.49133 0.189161 1.62491 0.322791C1.75849 0.456421 1.83353 0.637666 1.83353 0.826647H1.834ZM10.8408 0.826647C10.8408 1.01563 10.7657 1.19687 10.6322 1.3305C10.4986 1.46413 10.3174 1.5392 10.1285 1.5392C9.93957 1.5392 9.75841 1.46413 9.62483 1.3305C9.49125 1.19687 9.41618 1.01563 9.41618 0.826647C9.41618 0.637666 9.49125 0.456421 9.62483 0.322791C9.75841 0.189161 9.93957 0.114093 10.1285 0.114093C10.3174 0.114093 10.4986 0.189161 10.6322 0.322791C10.7657 0.456421 10.8408 0.637666 10.8408 0.826647ZM19.8481 0.826647C19.8481 1.01569 19.773 1.19699 19.6394 1.33066C19.5057 1.46434 19.3245 1.53945 19.1355 1.53945C18.9465 1.53945 18.7653 1.46434 18.6317 1.33066C18.498 1.19699 18.423 1.01569 18.423 0.826647C18.423 0.637603 18.498 0.456306 18.6317 0.322632C18.7653 0.188957 18.9465 0.113861 19.1355 0.113861C19.3245 0.113861 19.5057 0.188957 19.6394 0.322632C19.773 0.456306 19.8481 0.637603 19.8481 0.826647ZM28.8553 0.826647C28.8553 1.01569 28.7802 1.19699 28.6466 1.33066C28.513 1.46434 28.3318 1.53945 28.1428 1.53945C27.9538 1.53945 27.7726 1.46434 27.6389 1.33066C27.5053 1.19699 27.4303 1.01569 27.4303 0.826647C27.4303 0.637666 27.5053 0.456421 27.6389 0.322791C27.7725 0.189161 27.9536 0.114093 28.1426 0.114093C28.3315 0.114093 28.5126 0.189161 28.6462 0.322791C28.7798 0.456421 28.8549 0.637666 28.8549 0.826647H28.8553ZM37.8626 0.826647C37.8626 1.01569 37.7875 1.19699 37.6539 1.33066C37.5203 1.46434 37.339 1.53945 37.15 1.53945C36.9611 1.53945 36.7798 1.46434 36.6462 1.33066C36.5126 1.19699 36.4375 1.01569 36.4375 0.826647C36.4375 0.637666 36.5125 0.456421 36.6461 0.322791C36.7797 0.189161 36.9609 0.114093 37.1498 0.114093C37.3387 0.114093 37.5199 0.189161 37.6535 0.322791C37.7871 0.456421 37.8621 0.637666 37.8621 0.826647H37.8626ZM46.8694 0.826647C46.8694 1.01563 46.7943 1.19687 46.6608 1.3305C46.5272 1.46413 46.346 1.5392 46.1571 1.5392C45.9682 1.5392 45.787 1.46413 45.6534 1.3305C45.5198 1.19687 45.4448 1.01563 45.4448 0.826647C45.4448 0.637666 45.5198 0.456421 45.6534 0.322791C45.787 0.189161 45.9682 0.114093 46.1571 0.114093C46.346 0.114093 46.5272 0.189161 46.6608 0.322791C46.7943 0.456421 46.8694 0.637666 46.8694 0.826647ZM55.8767 0.826647C55.8767 1.01563 55.8016 1.19687 55.668 1.3305C55.5344 1.46413 55.3533 1.5392 55.1644 1.5392C54.9754 1.5392 54.7943 1.46413 54.6607 1.3305C54.5271 1.19687 54.4521 1.01563 54.4521 0.826647C54.4521 0.637666 54.5271 0.456421 54.6607 0.322791C54.7943 0.189161 54.9754 0.114093 55.1644 0.114093C55.3533 0.114093 55.5344 0.189161 55.668 0.322791C55.8016 0.456421 55.8767 0.637666 55.8767 0.826647ZM64.8844 0.826647C64.8844 1.01569 64.8093 1.19699 64.6757 1.33066C64.5421 1.46434 64.3608 1.53945 64.1719 1.53945C63.9829 1.53945 63.8016 1.46434 63.668 1.33066C63.5344 1.19699 63.4593 1.01569 63.4593 0.826647C63.4593 0.637603 63.5344 0.456306 63.668 0.322632C63.8016 0.188957 63.9829 0.113861 64.1719 0.113861C64.3608 0.113861 64.5421 0.188957 64.6757 0.322632C64.8093 0.456306 64.8844 0.637603 64.8844 0.826647ZM73.8916 0.826647C73.8916 1.01569 73.8166 1.19699 73.683 1.33066C73.5493 1.46434 73.3681 1.53945 73.1791 1.53945C72.9901 1.53945 72.8089 1.46434 72.6753 1.33066C72.5416 1.19699 72.4666 1.01569 72.4666 0.826647C72.4666 0.637666 72.5416 0.456421 72.6752 0.322791C72.8088 0.189161 72.99 0.114093 73.1789 0.114093C73.3678 0.114093 73.549 0.189161 73.6825 0.322791C73.8161 0.456421 73.8912 0.637666 73.8912 0.826647H73.8916ZM82.8989 0.826647C82.8989 1.01575 82.8238 1.19712 82.6901 1.33084C82.5565 1.46455 82.3752 1.53968 82.1861 1.53968C81.9971 1.53968 81.8158 1.46455 81.6821 1.33084C81.5484 1.19712 81.4734 1.01575 81.4734 0.826647C81.4734 0.637603 81.5484 0.456306 81.6821 0.322632C81.8157 0.188957 81.9969 0.113861 82.1859 0.113861C82.3749 0.113861 82.5561 0.188957 82.6897 0.322632C82.8234 0.456306 82.8984 0.637603 82.8984 0.826647H82.8989ZM91.9057 0.826647C91.9057 1.01563 91.8306 1.19687 91.6971 1.3305C91.5635 1.46413 91.3823 1.5392 91.1934 1.5392C91.0045 1.5392 90.8233 1.46413 90.6897 1.3305C90.5562 1.19687 90.4811 1.01563 90.4811 0.826647C90.4811 0.637666 90.5562 0.456421 90.6897 0.322791C90.8233 0.189161 91.0045 0.114093 91.1934 0.114093C91.3823 0.114093 91.5635 0.189161 91.6971 0.322791C91.8306 0.456421 91.9057 0.637666 91.9057 0.826647ZM100.913 0.826647C100.913 1.01569 100.838 1.19699 100.704 1.33066C100.571 1.46434 100.389 1.53945 100.2 1.53945C100.011 1.53945 99.8302 1.46434 99.6966 1.33066C99.563 1.19699 99.4879 1.01569 99.4879 0.826647C99.4879 0.637603 99.563 0.456306 99.6966 0.322632C99.8302 0.188957 100.011 0.113861 100.2 0.113861C100.389 0.113861 100.571 0.188957 100.704 0.322632C100.838 0.456306 100.913 0.637603 100.913 0.826647ZM1.834 9.95825C1.83397 10.0519 1.81552 10.1445 1.77968 10.231C1.74385 10.3175 1.69133 10.396 1.62514 10.4622C1.55896 10.5284 1.48037 10.5809 1.39391 10.6166C1.30745 10.6524 1.21481 10.6708 1.12124 10.6708C1.02766 10.6708 0.934995 10.6523 0.848558 10.6165C0.762121 10.5806 0.683615 10.5281 0.617472 10.4619C0.551329 10.3957 0.498856 10.3171 0.463077 10.2306C0.427297 10.1441 0.408904 10.0514 0.408936 9.95779C0.408999 9.76881 0.484106 9.58759 0.617733 9.45401C0.75136 9.32042 0.932553 9.24541 1.12147 9.24547C1.31038 9.24553 1.49152 9.32067 1.62506 9.45434C1.75859 9.58801 1.8336 9.76927 1.83353 9.95825H1.834ZM10.8408 9.95825C10.8407 10.1472 10.7656 10.3285 10.632 10.462C10.4984 10.5956 10.3172 10.6706 10.1282 10.6706C9.93933 10.6705 9.7582 10.5954 9.62466 10.4617C9.49112 10.328 9.41612 10.1468 9.41618 9.95779C9.41624 9.76881 9.49135 9.58759 9.62498 9.45401C9.7586 9.32042 9.93983 9.24541 10.1287 9.24547C10.3177 9.24553 10.4988 9.32067 10.6323 9.45434C10.7659 9.58801 10.8408 9.76927 10.8408 9.95825ZM19.8481 9.95825C19.848 10.0519 19.8296 10.1445 19.7937 10.231C19.7579 10.3175 19.7054 10.396 19.6392 10.4622C19.573 10.5284 19.4944 10.5809 19.408 10.6166C19.3215 10.6524 19.2289 10.6708 19.1353 10.6708C19.0417 10.6708 18.949 10.6523 18.8626 10.6165C18.7762 10.5806 18.6977 10.5281 18.6315 10.4619C18.5654 10.3957 18.5129 10.3171 18.4771 10.2306C18.4414 10.1441 18.423 10.0514 18.423 9.95779C18.4231 9.76875 18.4982 9.58746 18.6318 9.45383C18.7655 9.3202 18.9468 9.24517 19.1358 9.24524C19.3247 9.2453 19.5059 9.32045 19.6395 9.45417C19.7731 9.58788 19.8481 9.76921 19.8481 9.95825ZM28.8553 9.95825C28.8553 10.0519 28.8368 10.1445 28.801 10.231C28.7651 10.3175 28.7127 10.396 28.6465 10.4622C28.5803 10.5284 28.5017 10.5809 28.4152 10.6166C28.3288 10.6524 28.2361 10.6708 28.1426 10.6708C28.049 10.6708 27.9563 10.6523 27.8699 10.6165C27.7834 10.5806 27.7049 10.5281 27.6388 10.4619C27.5726 10.3957 27.5202 10.3171 27.4844 10.2306C27.4486 10.1441 27.4302 10.0514 27.4303 9.95779C27.4303 9.76881 27.5054 9.58759 27.639 9.45401C27.7727 9.32042 27.9539 9.24541 28.1428 9.24547C28.3317 9.24553 28.5128 9.32067 28.6464 9.45434C28.7799 9.58801 28.8549 9.76927 28.8549 9.95825H28.8553ZM37.8626 9.95825C37.8626 10.0519 37.8441 10.1445 37.8083 10.231C37.7724 10.3175 37.7199 10.396 37.6537 10.4622C37.5875 10.5284 37.509 10.5809 37.4225 10.6166C37.3361 10.6524 37.2434 10.6708 37.1498 10.6708C37.0562 10.6708 36.9636 10.6523 36.8772 10.6165C36.7907 10.5806 36.7122 10.5281 36.646 10.4619C36.5799 10.3957 36.5274 10.3171 36.4916 10.2306C36.4559 10.1441 36.4375 10.0514 36.4375 9.95779C36.4376 9.76881 36.5127 9.58759 36.6463 9.45401C36.7799 9.32042 36.9611 9.24541 37.15 9.24547C37.339 9.24553 37.5201 9.32067 37.6537 9.45434C37.7872 9.58801 37.8622 9.76927 37.8621 9.95825H37.8626ZM46.8694 9.95825C46.8694 10.1472 46.7943 10.3285 46.6608 10.4621C46.5272 10.5957 46.346 10.6708 46.1571 10.6708C45.9682 10.6708 45.787 10.5957 45.6534 10.4621C45.5198 10.3285 45.4448 10.1472 45.4448 9.95825C45.4448 9.76927 45.5198 9.58804 45.6534 9.45441C45.787 9.32078 45.9682 9.2457 46.1571 9.2457C46.346 9.2457 46.5272 9.32078 46.6608 9.45441C46.7943 9.58804 46.8694 9.76927 46.8694 9.95825ZM55.8767 9.95825C55.8767 10.1472 55.8016 10.3285 55.668 10.4621C55.5344 10.5957 55.3533 10.6708 55.1644 10.6708C54.9754 10.6708 54.7943 10.5957 54.6607 10.4621C54.5271 10.3285 54.4521 10.1472 54.4521 9.95825C54.4521 9.76927 54.5271 9.58804 54.6607 9.45441C54.7943 9.32078 54.9754 9.2457 55.1644 9.2457C55.3533 9.2457 55.5344 9.32078 55.668 9.45441C55.8016 9.58804 55.8767 9.76927 55.8767 9.95825ZM64.8844 9.95825C64.8843 10.1473 64.8092 10.3286 64.6755 10.4622C64.5418 10.5958 64.3606 10.6709 64.1716 10.6708C63.9826 10.6707 63.8014 10.5956 63.6678 10.4619C63.5342 10.3282 63.4592 10.1468 63.4593 9.95779C63.4594 9.76875 63.5345 9.58746 63.6682 9.45383C63.8018 9.3202 63.9831 9.24517 64.1721 9.24524C64.3611 9.2453 64.5423 9.32045 64.6758 9.45417C64.8094 9.58788 64.8845 9.76921 64.8844 9.95825ZM73.8916 9.95825C73.8916 10.1473 73.8164 10.3286 73.6828 10.4622C73.5491 10.5958 73.3678 10.6709 73.1789 10.6708C72.9899 10.6707 72.8087 10.5956 72.6751 10.4619C72.5415 10.3282 72.4665 10.1468 72.4666 9.95779C72.4666 9.76881 72.5417 9.58759 72.6754 9.45401C72.809 9.32042 72.9902 9.24541 73.1791 9.24547C73.368 9.24553 73.5492 9.32067 73.6827 9.45434C73.8163 9.58801 73.8912 9.76927 73.8912 9.95825H73.8916ZM82.8989 9.95825C82.8989 10.0519 82.8804 10.1446 82.8446 10.2311C82.8087 10.3176 82.7562 10.3962 82.69 10.4624C82.6237 10.5286 82.5452 10.5811 82.4587 10.6169C82.3722 10.6527 82.2795 10.6711 82.1859 10.6711C82.0923 10.671 81.9996 10.6526 81.9131 10.6167C81.8267 10.5808 81.7481 10.5283 81.682 10.462C81.6158 10.3958 81.5633 10.3172 81.5275 10.2307C81.4917 10.1441 81.4733 10.0514 81.4734 9.95779C81.4734 9.76875 81.5486 9.58746 81.6822 9.45383C81.8159 9.3202 81.9972 9.24517 82.1861 9.24524C82.3751 9.2453 82.5563 9.32045 82.6899 9.45417C82.8235 9.58788 82.8985 9.76921 82.8984 9.95825H82.8989ZM91.9057 9.95825C91.9057 10.0518 91.8872 10.1445 91.8514 10.2309C91.8156 10.3174 91.7631 10.3959 91.6969 10.462C91.6308 10.5282 91.5522 10.5806 91.4658 10.6164C91.3793 10.6522 91.2867 10.6706 91.1932 10.6706C91.0996 10.6705 91.007 10.6521 90.9206 10.6162C90.8342 10.5804 90.7557 10.5279 90.6896 10.4617C90.6234 10.3955 90.571 10.317 90.5352 10.2305C90.4995 10.144 90.4811 10.0514 90.4811 9.95779C90.4812 9.76881 90.5563 9.58759 90.6899 9.45401C90.8235 9.32042 91.0047 9.24541 91.1936 9.24547C91.3826 9.24553 91.5637 9.32067 91.6972 9.45434C91.8308 9.58801 91.9058 9.76927 91.9057 9.95825ZM100.913 9.95825C100.913 10.1473 100.838 10.3286 100.704 10.4622C100.57 10.5958 100.389 10.6709 100.2 10.6708C100.011 10.6707 99.83 10.5956 99.6964 10.4619C99.5629 10.3282 99.4878 10.1468 99.4879 9.95779C99.488 9.76875 99.5631 9.58746 99.6967 9.45383C99.8304 9.3202 100.012 9.24517 100.201 9.24524C100.39 9.2453 100.571 9.32045 100.704 9.45417C100.838 9.58788 100.913 9.76921 100.913 9.95825ZM1.834 19.0903C1.83397 19.1839 1.81552 19.2766 1.77968 19.3631C1.74385 19.4496 1.69133 19.5281 1.62514 19.5943C1.55896 19.6605 1.48037 19.7129 1.39391 19.7487C1.30745 19.7845 1.21481 19.8029 1.12124 19.8029C1.02766 19.8029 0.934995 19.7844 0.848558 19.7485C0.762121 19.7127 0.683615 19.6602 0.617472 19.594C0.551329 19.5278 0.498856 19.4492 0.463077 19.3627C0.427297 19.2762 0.408904 19.1835 0.408936 19.0899C0.408936 18.9009 0.483977 18.7197 0.617559 18.586C0.751141 18.4524 0.932322 18.3773 1.12124 18.3773C1.31015 18.3773 1.49133 18.4524 1.62491 18.586C1.75849 18.7197 1.83353 18.9009 1.83353 19.0899L1.834 19.0903ZM10.8408 19.0903C10.8407 19.2793 10.7656 19.4605 10.632 19.5941C10.4984 19.7277 10.3172 19.8027 10.1282 19.8027C9.93933 19.8026 9.7582 19.7275 9.62466 19.5938C9.49112 19.4601 9.41612 19.2789 9.41618 19.0899C9.41618 18.9009 9.49125 18.7197 9.62483 18.586C9.75841 18.4524 9.93957 18.3773 10.1285 18.3773C10.3174 18.3773 10.4986 18.4524 10.6322 18.586C10.7657 18.7197 10.8408 18.9009 10.8408 19.0899V19.0903ZM19.8481 19.0903C19.848 19.1839 19.8296 19.2766 19.7937 19.3631C19.7579 19.4496 19.7054 19.5281 19.6392 19.5943C19.573 19.6605 19.4944 19.7129 19.408 19.7487C19.3215 19.7845 19.2289 19.8029 19.1353 19.8029C19.0417 19.8029 18.949 19.7844 18.8626 19.7485C18.7762 19.7127 18.6977 19.6602 18.6315 19.594C18.5654 19.5278 18.5129 19.4492 18.4771 19.3627C18.4414 19.2762 18.423 19.1835 18.423 19.0899C18.423 18.9008 18.498 18.7195 18.6317 18.5858C18.7653 18.4522 18.9465 18.3771 19.1355 18.3771C19.3245 18.3771 19.5057 18.4522 19.6394 18.5858C19.773 18.7195 19.8481 18.9008 19.8481 19.0899V19.0903ZM28.8553 19.0903C28.8553 19.1839 28.8368 19.2766 28.801 19.3631C28.7651 19.4496 28.7127 19.5281 28.6465 19.5943C28.5803 19.6605 28.5017 19.7129 28.4152 19.7487C28.3288 19.7845 28.2361 19.8029 28.1426 19.8029C28.049 19.8029 27.9563 19.7844 27.8699 19.7485C27.7834 19.7127 27.7049 19.6602 27.6388 19.594C27.5726 19.5278 27.5202 19.4492 27.4844 19.3627C27.4486 19.2762 27.4302 19.1835 27.4303 19.0899C27.4303 18.9009 27.5053 18.7197 27.6389 18.586C27.7725 18.4524 27.9536 18.3773 28.1426 18.3773C28.3315 18.3773 28.5126 18.4524 28.6462 18.586C28.7798 18.7197 28.8549 18.9009 28.8549 19.0899L28.8553 19.0903ZM37.8626 19.0903C37.8626 19.1839 37.8441 19.2766 37.8083 19.3631C37.7724 19.4496 37.7199 19.5281 37.6537 19.5943C37.5875 19.6605 37.509 19.7129 37.4225 19.7487C37.3361 19.7845 37.2434 19.8029 37.1498 19.8029C37.0562 19.8029 36.9636 19.7844 36.8772 19.7485C36.7907 19.7127 36.7122 19.6602 36.646 19.594C36.5799 19.5278 36.5274 19.4492 36.4916 19.3627C36.4559 19.2762 36.4375 19.1835 36.4375 19.0899C36.4375 18.9009 36.5125 18.7197 36.6461 18.586C36.7797 18.4524 36.9609 18.3773 37.1498 18.3773C37.3387 18.3773 37.5199 18.4524 37.6535 18.586C37.7871 18.7197 37.8621 18.9009 37.8621 19.0899L37.8626 19.0903ZM46.8694 19.0903C46.8694 19.2793 46.7943 19.4606 46.6608 19.5942C46.5272 19.7278 46.346 19.8029 46.1571 19.8029C45.9682 19.8029 45.787 19.7278 45.6534 19.5942C45.5198 19.4606 45.4448 19.2793 45.4448 19.0903C45.4448 18.9014 45.5198 18.7201 45.6534 18.5865C45.787 18.4529 45.9682 18.3778 46.1571 18.3778C46.346 18.3778 46.5272 18.4529 46.6608 18.5865C46.7943 18.7201 46.8694 18.9014 46.8694 19.0903ZM55.8767 19.0903C55.8767 19.2793 55.8016 19.4606 55.668 19.5942C55.5344 19.7278 55.3533 19.8029 55.1644 19.8029C54.9754 19.8029 54.7943 19.7278 54.6607 19.5942C54.5271 19.4606 54.4521 19.2793 54.4521 19.0903C54.4521 18.9014 54.5271 18.7201 54.6607 18.5865C54.7943 18.4529 54.9754 18.3778 55.1644 18.3778C55.3533 18.3778 55.5344 18.4529 55.668 18.5865C55.8016 18.7201 55.8767 18.9014 55.8767 19.0903ZM64.8844 19.0903C64.8843 19.2794 64.8092 19.4607 64.6755 19.5943C64.5418 19.7279 64.3606 19.803 64.1716 19.8029C63.9826 19.8028 63.8014 19.7277 63.6678 19.594C63.5342 19.4602 63.4592 19.2789 63.4593 19.0899C63.4593 18.9008 63.5344 18.7195 63.668 18.5858C63.8016 18.4522 63.9829 18.3771 64.1719 18.3771C64.3608 18.3771 64.5421 18.4522 64.6757 18.5858C64.8093 18.7195 64.8844 18.9008 64.8844 19.0899V19.0903ZM73.8916 19.0903C73.8916 19.2794 73.8164 19.4607 73.6828 19.5943C73.5491 19.7279 73.3678 19.803 73.1789 19.8029C72.9899 19.8028 72.8087 19.7277 72.6751 19.594C72.5415 19.4602 72.4665 19.2789 72.4666 19.0899C72.4666 18.9009 72.5416 18.7197 72.6752 18.586C72.8088 18.4524 72.99 18.3773 73.1789 18.3773C73.3678 18.3773 73.549 18.4524 73.6825 18.586C73.8161 18.7197 73.8912 18.9009 73.8912 19.0899L73.8916 19.0903ZM82.8989 19.0903C82.8988 19.2794 82.8237 19.4608 82.69 19.5945C82.5562 19.7281 82.3749 19.8032 82.1859 19.8031C81.9969 19.8031 81.8156 19.7279 81.682 19.5941C81.5483 19.4604 81.4733 19.279 81.4734 19.0899C81.4734 18.9008 81.5484 18.7195 81.6821 18.5858C81.8157 18.4522 81.9969 18.3771 82.1859 18.3771C82.3749 18.3771 82.5561 18.4522 82.6897 18.5858C82.8234 18.7195 82.8984 18.9008 82.8984 19.0899L82.8989 19.0903ZM91.9057 19.0903C91.9057 19.1839 91.8872 19.2766 91.8514 19.363C91.8156 19.4495 91.7631 19.528 91.6969 19.5941C91.6308 19.6603 91.5522 19.7127 91.4658 19.7485C91.3793 19.7843 91.2867 19.8027 91.1932 19.8027C91.0996 19.8026 91.007 19.7842 90.9206 19.7483C90.8342 19.7125 90.7557 19.66 90.6896 19.5938C90.6234 19.5276 90.571 19.449 90.5352 19.3626C90.4995 19.2761 90.4811 19.1834 90.4811 19.0899C90.4811 18.9009 90.5562 18.7197 90.6897 18.586C90.8233 18.4524 91.0045 18.3773 91.1934 18.3773C91.3823 18.3773 91.5635 18.4524 91.6971 18.586C91.8306 18.7197 91.9057 18.9009 91.9057 19.0899V19.0903ZM100.913 19.0903C100.913 19.2794 100.838 19.4607 100.704 19.5943C100.57 19.7279 100.389 19.803 100.2 19.8029C100.011 19.8028 99.83 19.7277 99.6964 19.594C99.5629 19.4602 99.4878 19.2789 99.4879 19.0899C99.4879 18.9008 99.563 18.7195 99.6966 18.5858C99.8302 18.4522 100.011 18.3771 100.2 18.3771C100.389 18.3771 100.571 18.4522 100.704 18.5858C100.838 18.7195 100.913 18.9008 100.913 19.0899V19.0903ZM1.834 28.2215C1.834 28.4105 1.75894 28.5918 1.62532 28.7255C1.49169 28.8592 1.31044 28.9343 1.12147 28.9343C0.93249 28.9343 0.751244 28.8592 0.617617 28.7255C0.48399 28.5918 0.408936 28.4105 0.408936 28.2215C0.408936 28.0325 0.483977 27.8513 0.617559 27.7176C0.751141 27.584 0.932322 27.5089 1.12124 27.5089C1.31015 27.5089 1.49133 27.584 1.62491 27.7176C1.75849 27.8513 1.83353 28.0325 1.83353 28.2215H1.834ZM10.8408 28.2215C10.8408 28.4105 10.7657 28.5917 10.6322 28.7253C10.4986 28.859 10.3174 28.934 10.1285 28.934C9.93957 28.934 9.75841 28.859 9.62483 28.7253C9.49125 28.5917 9.41618 28.4105 9.41618 28.2215C9.41618 28.0325 9.49125 27.8513 9.62483 27.7176C9.75841 27.584 9.93957 27.5089 10.1285 27.5089C10.3174 27.5089 10.4986 27.584 10.6322 27.7176C10.7657 27.8513 10.8408 28.0325 10.8408 28.2215ZM19.8481 28.2215C19.8481 28.4105 19.773 28.5918 19.6394 28.7255C19.5057 28.8592 19.3245 28.9343 19.1355 28.9343C18.9465 28.9343 18.7653 28.8592 18.6317 28.7255C18.498 28.5918 18.423 28.4105 18.423 28.2215C18.423 28.0324 18.498 27.8511 18.6317 27.7175C18.7653 27.5838 18.9465 27.5087 19.1355 27.5087C19.3245 27.5087 19.5057 27.5838 19.6394 27.7175C19.773 27.8511 19.8481 28.0324 19.8481 28.2215ZM28.8553 28.2215C28.8553 28.4105 28.7802 28.5918 28.6466 28.7255C28.513 28.8592 28.3318 28.9343 28.1428 28.9343C27.9538 28.9343 27.7726 28.8592 27.6389 28.7255C27.5053 28.5918 27.4303 28.4105 27.4303 28.2215C27.4303 28.0325 27.5053 27.8513 27.6389 27.7176C27.7725 27.584 27.9536 27.5089 28.1426 27.5089C28.3315 27.5089 28.5126 27.584 28.6462 27.7176C28.7798 27.8513 28.8549 28.0325 28.8549 28.2215H28.8553ZM37.8626 28.2215C37.8626 28.4105 37.7875 28.5918 37.6539 28.7255C37.5203 28.8592 37.339 28.9343 37.15 28.9343C36.9611 28.9343 36.7798 28.8592 36.6462 28.7255C36.5126 28.5918 36.4375 28.4105 36.4375 28.2215C36.4375 28.0325 36.5125 27.8513 36.6461 27.7176C36.7797 27.584 36.9609 27.5089 37.1498 27.5089C37.3387 27.5089 37.5199 27.584 37.6535 27.7176C37.7871 27.8513 37.8621 28.0325 37.8621 28.2215H37.8626ZM46.8694 28.2215C46.8694 28.4105 46.7943 28.5917 46.6608 28.7253C46.5272 28.859 46.346 28.934 46.1571 28.934C45.9682 28.934 45.787 28.859 45.6534 28.7253C45.5198 28.5917 45.4448 28.4105 45.4448 28.2215C45.4448 28.0325 45.5198 27.8513 45.6534 27.7176C45.787 27.584 45.9682 27.5089 46.1571 27.5089C46.346 27.5089 46.5272 27.584 46.6608 27.7176C46.7943 27.8513 46.8694 28.0325 46.8694 28.2215ZM55.8767 28.2215C55.8767 28.4105 55.8016 28.5917 55.668 28.7253C55.5344 28.859 55.3533 28.934 55.1644 28.934C54.9754 28.934 54.7943 28.859 54.6607 28.7253C54.5271 28.5917 54.4521 28.4105 54.4521 28.2215C54.4521 28.0325 54.5271 27.8513 54.6607 27.7176C54.7943 27.584 54.9754 27.5089 55.1644 27.5089C55.3533 27.5089 55.5344 27.584 55.668 27.7176C55.8016 27.8513 55.8767 28.0325 55.8767 28.2215ZM64.8844 28.2215C64.8844 28.4105 64.8093 28.5918 64.6757 28.7255C64.5421 28.8592 64.3608 28.9343 64.1719 28.9343C63.9829 28.9343 63.8016 28.8592 63.668 28.7255C63.5344 28.5918 63.4593 28.4105 63.4593 28.2215C63.4593 28.0324 63.5344 27.8511 63.668 27.7175C63.8016 27.5838 63.9829 27.5087 64.1719 27.5087C64.3608 27.5087 64.5421 27.5838 64.6757 27.7175C64.8093 27.8511 64.8844 28.0324 64.8844 28.2215ZM73.8916 28.2215C73.8916 28.4105 73.8166 28.5918 73.683 28.7255C73.5493 28.8592 73.3681 28.9343 73.1791 28.9343C72.9901 28.9343 72.8089 28.8592 72.6753 28.7255C72.5416 28.5918 72.4666 28.4105 72.4666 28.2215C72.4666 28.0325 72.5416 27.8513 72.6752 27.7176C72.8088 27.584 72.99 27.5089 73.1789 27.5089C73.3678 27.5089 73.549 27.584 73.6825 27.7176C73.8161 27.8513 73.8912 28.0325 73.8912 28.2215H73.8916ZM82.8989 28.2215C82.8989 28.4106 82.8238 28.592 82.6901 28.7257C82.5565 28.8594 82.3752 28.9345 82.1861 28.9345C81.9971 28.9345 81.8158 28.8594 81.6821 28.7257C81.5484 28.592 81.4734 28.4106 81.4734 28.2215C81.4734 28.0324 81.5484 27.8511 81.6821 27.7175C81.8157 27.5838 81.9969 27.5087 82.1859 27.5087C82.3749 27.5087 82.5561 27.5838 82.6897 27.7175C82.8234 27.8511 82.8984 28.0324 82.8984 28.2215H82.8989ZM91.9057 28.2215C91.9057 28.4105 91.8306 28.5917 91.6971 28.7253C91.5635 28.859 91.3823 28.934 91.1934 28.934C91.0045 28.934 90.8233 28.859 90.6897 28.7253C90.5562 28.5917 90.4811 28.4105 90.4811 28.2215C90.4811 28.0325 90.5562 27.8513 90.6897 27.7176C90.8233 27.584 91.0045 27.5089 91.1934 27.5089C91.3823 27.5089 91.5635 27.584 91.6971 27.7176C91.8306 27.8513 91.9057 28.0325 91.9057 28.2215ZM100.913 28.2215C100.913 28.4105 100.838 28.5918 100.704 28.7255C100.571 28.8592 100.389 28.9343 100.2 28.9343C100.011 28.9343 99.8302 28.8592 99.6966 28.7255C99.563 28.5918 99.4879 28.4105 99.4879 28.2215C99.4879 28.0324 99.563 27.8511 99.6966 27.7175C99.8302 27.5838 100.011 27.5087 100.2 27.5087C100.389 27.5087 100.571 27.5838 100.704 27.7175C100.838 27.8511 100.913 28.0324 100.913 28.2215ZM1.834 37.3531C1.834 37.5421 1.75896 37.7233 1.62537 37.8569C1.49179 37.9906 1.31061 38.0656 1.1217 38.0656C0.932785 38.0656 0.751605 37.9906 0.618023 37.8569C0.484441 37.7233 0.409399 37.5421 0.409399 37.3531C0.409399 37.1641 0.484441 36.9829 0.618023 36.8493C0.751605 36.7156 0.932785 36.6405 1.1217 36.6405C1.31061 36.6405 1.49179 36.7156 1.62537 36.8493C1.75896 36.9829 1.834 37.1641 1.834 37.3531ZM10.8408 37.3531C10.8408 37.5421 10.7657 37.7233 10.6322 37.8569C10.4986 37.9906 10.3174 38.0656 10.1285 38.0656C9.93957 38.0656 9.75841 37.9906 9.62483 37.8569C9.49125 37.7233 9.41618 37.5421 9.41618 37.3531C9.41618 37.1641 9.49125 36.9829 9.62483 36.8493C9.75841 36.7156 9.93957 36.6405 10.1285 36.6405C10.3174 36.6405 10.4986 36.7156 10.6322 36.8493C10.7657 36.9829 10.8408 37.1641 10.8408 37.3531ZM19.8481 37.3531C19.8481 37.5421 19.773 37.7233 19.6394 37.8569C19.5058 37.9906 19.3247 38.0656 19.1358 38.0656C18.9468 38.0656 18.7657 37.9906 18.6321 37.8569C18.4985 37.7233 18.4235 37.5421 18.4235 37.3531C18.4235 37.1641 18.4985 36.9829 18.6321 36.8493C18.7657 36.7156 18.9468 36.6405 19.1358 36.6405C19.3247 36.6405 19.5058 36.7156 19.6394 36.8493C19.773 36.9829 19.8481 37.1641 19.8481 37.3531ZM28.8553 37.3531C28.8553 37.5421 28.7803 37.7233 28.6467 37.8569C28.5131 37.9906 28.3319 38.0656 28.143 38.0656C27.9541 38.0656 27.7729 37.9906 27.6393 37.8569C27.5058 37.7233 27.4307 37.5421 27.4307 37.3531C27.4307 37.1641 27.5058 36.9829 27.6393 36.8493C27.7729 36.7156 27.9541 36.6405 28.143 36.6405C28.3319 36.6405 28.5131 36.7156 28.6467 36.8493C28.7803 36.9829 28.8553 37.1641 28.8553 37.3531ZM37.8626 37.3531C37.8626 37.5421 37.7875 37.7233 37.6539 37.8569C37.5204 37.9906 37.3392 38.0656 37.1503 38.0656C36.9614 38.0656 36.7802 37.9906 36.6466 37.8569C36.513 37.7233 36.438 37.5421 36.438 37.3531C36.438 37.1641 36.513 36.9829 36.6466 36.8493C36.7802 36.7156 36.9614 36.6405 37.1503 36.6405C37.3392 36.6405 37.5204 36.7156 37.6539 36.8493C37.7875 36.9829 37.8626 37.1641 37.8626 37.3531ZM46.8694 37.3531C46.8729 37.4488 46.8571 37.5442 46.8229 37.6337C46.7888 37.7231 46.7369 37.8048 46.6705 37.8737C46.6041 37.9427 46.5245 37.9976 46.4364 38.0351C46.3483 38.0725 46.2535 38.0919 46.1578 38.0919C46.0621 38.0919 45.9673 38.0727 45.8792 38.0352C45.7911 37.9978 45.7114 37.943 45.6449 37.8741C45.5785 37.8052 45.5266 37.7235 45.4923 37.6341C45.4581 37.5447 45.4423 37.4493 45.4457 37.3536C45.4524 37.1692 45.5303 36.9946 45.663 36.8665C45.7957 36.7385 45.9729 36.6669 46.1573 36.6668C46.3417 36.6667 46.519 36.7382 46.6518 36.8662C46.7846 36.9942 46.8626 37.1687 46.8694 37.3531ZM55.8767 37.3531C55.8802 37.4488 55.8644 37.5442 55.8302 37.6337C55.7961 37.7231 55.7442 37.8048 55.6778 37.8737C55.6113 37.9427 55.5317 37.9976 55.4436 38.0351C55.3555 38.0725 55.2608 38.0919 55.1651 38.0919C55.0693 38.0919 54.9746 38.0727 54.8865 38.0352C54.7983 37.9978 54.7187 37.943 54.6522 37.8741C54.5857 37.8052 54.5338 37.7235 54.4996 37.6341C54.4654 37.5447 54.4495 37.4493 54.453 37.3536C54.4596 37.1692 54.5376 36.9946 54.6703 36.8665C54.803 36.7385 54.9802 36.6669 55.1646 36.6668C55.349 36.6667 55.5262 36.7382 55.659 36.8662C55.7918 36.9942 55.8699 37.1687 55.8767 37.3531ZM64.8844 37.3531C64.8844 37.5421 64.8093 37.7233 64.6758 37.8569C64.5422 37.9906 64.361 38.0656 64.1721 38.0656C63.9832 38.0656 63.802 37.9906 63.6684 37.8569C63.5348 37.7233 63.4598 37.5421 63.4598 37.3531C63.4598 37.1641 63.5348 36.9829 63.6684 36.8493C63.802 36.7156 63.9832 36.6405 64.1721 36.6405C64.361 36.6405 64.5422 36.7156 64.6758 36.8493C64.8093 36.9829 64.8844 37.1641 64.8844 37.3531ZM73.8916 37.3531C73.8916 37.5421 73.8166 37.7233 73.683 37.8569C73.5494 37.9906 73.3682 38.0656 73.1793 38.0656C72.9904 38.0656 72.8093 37.9906 72.6757 37.8569C72.5421 37.7233 72.467 37.5421 72.467 37.3531C72.467 37.1641 72.5421 36.9829 72.6757 36.8493C72.8093 36.7156 72.9904 36.6405 73.1793 36.6405C73.3682 36.6405 73.5494 36.7156 73.683 36.8493C73.8166 36.9829 73.8916 37.1641 73.8916 37.3531ZM82.8989 37.3531C82.8989 37.5421 82.8239 37.7233 82.6903 37.8569C82.5567 37.9906 82.3755 38.0656 82.1866 38.0656C81.9977 38.0656 81.8165 37.9906 81.6829 37.8569C81.5493 37.7233 81.4743 37.5421 81.4743 37.3531C81.4743 37.1641 81.5493 36.9829 81.6829 36.8493C81.8165 36.7156 81.9977 36.6405 82.1866 36.6405C82.3755 36.6405 82.5567 36.7156 82.6903 36.8493C82.8239 36.9829 82.8989 37.1641 82.8989 37.3531ZM91.9057 37.3531C91.9057 37.5421 91.8306 37.7233 91.6971 37.8569C91.5635 37.9906 91.3823 38.0656 91.1934 38.0656C91.0045 38.0656 90.8233 37.9906 90.6897 37.8569C90.5562 37.7233 90.4811 37.5421 90.4811 37.3531C90.4811 37.1641 90.5562 36.9829 90.6897 36.8493C90.8233 36.7156 91.0045 36.6405 91.1934 36.6405C91.3823 36.6405 91.5635 36.7156 91.6971 36.8493C91.8306 36.9829 91.9057 37.1641 91.9057 37.3531ZM100.913 37.3531C100.913 37.5421 100.838 37.7233 100.704 37.8569C100.571 37.9906 100.39 38.0656 100.201 38.0656C100.012 38.0656 99.8306 37.9906 99.697 37.8569C99.5634 37.7233 99.4884 37.5421 99.4884 37.3531C99.4884 37.1641 99.5634 36.9829 99.697 36.8493C99.8306 36.7156 100.012 36.6405 100.201 36.6405C100.39 36.6405 100.571 36.7156 100.704 36.8493C100.838 36.9829 100.913 37.1641 100.913 37.3531ZM1.834 46.4852C1.83397 46.5788 1.81552 46.6715 1.77968 46.7579C1.74385 46.8444 1.69133 46.923 1.62514 46.9891C1.55896 47.0553 1.48037 47.1078 1.39391 47.1436C1.30745 47.1794 1.21481 47.1978 1.12124 47.1977C1.02766 47.1977 0.934995 47.1792 0.848558 47.1434C0.762121 47.1075 0.683615 47.055 0.617472 46.9888C0.551329 46.9226 0.498856 46.844 0.463077 46.7575C0.427297 46.671 0.408904 46.5783 0.408936 46.4847C0.408936 46.2957 0.483977 46.1145 0.617559 45.9809C0.751141 45.8472 0.932322 45.7722 1.12124 45.7722C1.31015 45.7722 1.49133 45.8472 1.62491 45.9809C1.75849 46.1145 1.83353 46.2957 1.83353 46.4847L1.834 46.4852ZM10.8408 46.4852C10.8407 46.6742 10.7656 46.8554 10.632 46.989C10.4984 47.1226 10.3172 47.1976 10.1282 47.1975C9.93933 47.1974 9.7582 47.1223 9.62466 46.9886C9.49112 46.8549 9.41612 46.6737 9.41618 46.4847C9.41618 46.2957 9.49125 46.1145 9.62483 45.9809C9.75841 45.8472 9.93957 45.7722 10.1285 45.7722C10.3174 45.7722 10.4986 45.8472 10.6322 45.9809C10.7657 46.1145 10.8408 46.2957 10.8408 46.4847V46.4852ZM19.8481 46.4852C19.848 46.5788 19.8296 46.6715 19.7937 46.7579C19.7579 46.8444 19.7054 46.923 19.6392 46.9891C19.573 47.0553 19.4944 47.1078 19.408 47.1436C19.3215 47.1794 19.2289 47.1978 19.1353 47.1977C19.0417 47.1977 18.949 47.1792 18.8626 47.1434C18.7762 47.1075 18.6977 47.055 18.6315 46.9888C18.5654 46.9226 18.5129 46.844 18.4771 46.7575C18.4414 46.671 18.423 46.5783 18.423 46.4847C18.423 46.2957 18.498 46.1144 18.6317 45.9807C18.7653 45.847 18.9465 45.7719 19.1355 45.7719C19.3245 45.7719 19.5057 45.847 19.6394 45.9807C19.773 46.1144 19.8481 46.2957 19.8481 46.4847V46.4852ZM28.8553 46.4852C28.8553 46.5788 28.8368 46.6715 28.801 46.7579C28.7651 46.8444 28.7127 46.923 28.6465 46.9891C28.5803 47.0553 28.5017 47.1078 28.4152 47.1436C28.3288 47.1794 28.2361 47.1978 28.1426 47.1977C28.049 47.1977 27.9563 47.1792 27.8699 47.1434C27.7834 47.1075 27.7049 47.055 27.6388 46.9888C27.5726 46.9226 27.5202 46.844 27.4844 46.7575C27.4486 46.671 27.4302 46.5783 27.4303 46.4847C27.4303 46.2957 27.5053 46.1145 27.6389 45.9809C27.7725 45.8472 27.9536 45.7722 28.1426 45.7722C28.3315 45.7722 28.5126 45.8472 28.6462 45.9809C28.7798 46.1145 28.8549 46.2957 28.8549 46.4847L28.8553 46.4852ZM37.8626 46.4852C37.8626 46.5788 37.8441 46.6715 37.8083 46.7579C37.7724 46.8444 37.7199 46.923 37.6537 46.9891C37.5875 47.0553 37.509 47.1078 37.4225 47.1436C37.3361 47.1794 37.2434 47.1978 37.1498 47.1977C37.0562 47.1977 36.9636 47.1792 36.8772 47.1434C36.7907 47.1075 36.7122 47.055 36.646 46.9888C36.5799 46.9226 36.5274 46.844 36.4916 46.7575C36.4559 46.671 36.4375 46.5783 36.4375 46.4847C36.4375 46.2957 36.5125 46.1145 36.6461 45.9809C36.7797 45.8472 36.9609 45.7722 37.1498 45.7722C37.3387 45.7722 37.5199 45.8472 37.6535 45.9809C37.7871 46.1145 37.8621 46.2957 37.8621 46.4847L37.8626 46.4852ZM46.8694 46.4852C46.8694 46.6742 46.7943 46.8554 46.6608 46.989C46.5272 47.1227 46.346 47.1977 46.1571 47.1977C45.9682 47.1977 45.787 47.1227 45.6534 46.989C45.5198 46.8554 45.4448 46.6742 45.4448 46.4852C45.4448 46.2962 45.5198 46.115 45.6534 45.9813C45.787 45.8477 45.9682 45.7726 46.1571 45.7726C46.346 45.7726 46.5272 45.8477 46.6608 45.9813C46.7943 46.115 46.8694 46.2962 46.8694 46.4852ZM55.8767 46.4852C55.8767 46.6742 55.8016 46.8554 55.668 46.989C55.5344 47.1227 55.3533 47.1977 55.1644 47.1977C54.9754 47.1977 54.7943 47.1227 54.6607 46.989C54.5271 46.8554 54.4521 46.6742 54.4521 46.4852C54.4521 46.2962 54.5271 46.115 54.6607 45.9813C54.7943 45.8477 54.9754 45.7726 55.1644 45.7726C55.3533 45.7726 55.5344 45.8477 55.668 45.9813C55.8016 46.115 55.8767 46.2962 55.8767 46.4852ZM64.8844 46.4852C64.8843 46.6742 64.8092 46.8555 64.6755 46.9891C64.5418 47.1227 64.3606 47.1978 64.1716 47.1977C63.9826 47.1977 63.8014 47.1225 63.6678 46.9888C63.5342 46.8551 63.4592 46.6738 63.4593 46.4847C63.4593 46.2957 63.5344 46.1144 63.668 45.9807C63.8016 45.847 63.9829 45.7719 64.1719 45.7719C64.3608 45.7719 64.5421 45.847 64.6757 45.9807C64.8093 46.1144 64.8844 46.2957 64.8844 46.4847V46.4852ZM73.8916 46.4852C73.8916 46.6742 73.8164 46.8555 73.6828 46.9891C73.5491 47.1227 73.3678 47.1978 73.1789 47.1977C72.9899 47.1977 72.8087 47.1225 72.6751 46.9888C72.5415 46.8551 72.4665 46.6738 72.4666 46.4847C72.4666 46.2957 72.5416 46.1145 72.6752 45.9809C72.8088 45.8472 72.99 45.7722 73.1789 45.7722C73.3678 45.7722 73.549 45.8472 73.6825 45.9809C73.8161 46.1145 73.8912 46.2957 73.8912 46.4847L73.8916 46.4852ZM82.8989 46.4852C82.8988 46.6743 82.8237 46.8556 82.69 46.9893C82.5562 47.123 82.3749 47.198 82.1859 47.198C81.9969 47.1979 81.8156 47.1227 81.682 46.989C81.5483 46.8552 81.4733 46.6738 81.4734 46.4847C81.4734 46.2957 81.5484 46.1144 81.6821 45.9807C81.8157 45.847 81.9969 45.7719 82.1859 45.7719C82.3749 45.7719 82.5561 45.847 82.6897 45.9807C82.8234 46.1144 82.8984 46.2957 82.8984 46.4847L82.8989 46.4852ZM91.9057 46.4852C91.9057 46.5788 91.8872 46.6714 91.8514 46.7578C91.8156 46.8443 91.7631 46.9228 91.6969 46.989C91.6308 47.0551 91.5522 47.1076 91.4658 47.1433C91.3793 47.1791 91.2867 47.1975 91.1932 47.1975C91.0996 47.1975 91.007 47.179 90.9206 47.1432C90.8342 47.1073 90.7557 47.0548 90.6896 46.9886C90.6234 46.9224 90.571 46.8439 90.5352 46.7574C90.4995 46.6709 90.4811 46.5783 90.4811 46.4847C90.4811 46.2957 90.5562 46.1145 90.6897 45.9809C90.8233 45.8472 91.0045 45.7722 91.1934 45.7722C91.3823 45.7722 91.5635 45.8472 91.6971 45.9809C91.8306 46.1145 91.9057 46.2957 91.9057 46.4847V46.4852ZM100.913 46.4852C100.913 46.6742 100.838 46.8555 100.704 46.9891C100.57 47.1227 100.389 47.1978 100.2 47.1977C100.011 47.1977 99.83 47.1225 99.6964 46.9888C99.5629 46.8551 99.4878 46.6738 99.4879 46.4847C99.4879 46.2957 99.563 46.1144 99.6966 45.9807C99.8302 45.847 100.011 45.7719 100.2 45.7719C100.389 45.7719 100.571 45.847 100.704 45.9807C100.838 46.1144 100.913 46.2957 100.913 46.4847V46.4852ZM1.834 55.6168C1.834 55.8058 1.75896 55.987 1.62537 56.1207C1.49179 56.2543 1.31061 56.3294 1.1217 56.3294C0.932785 56.3294 0.751605 56.2543 0.618023 56.1207C0.484441 55.987 0.409399 55.8058 0.409399 55.6168C0.409399 55.4278 0.484441 55.2466 0.618023 55.1129C0.751605 54.9793 0.932785 54.9042 1.1217 54.9042C1.31061 54.9042 1.49179 54.9793 1.62537 55.1129C1.75896 55.2466 1.834 55.4278 1.834 55.6168ZM10.8408 55.6168C10.8408 55.8058 10.7657 55.987 10.6322 56.1207C10.4986 56.2543 10.3174 56.3294 10.1285 56.3294C9.93957 56.3294 9.75841 56.2543 9.62483 56.1207C9.49125 55.987 9.41618 55.8058 9.41618 55.6168C9.41618 55.4278 9.49125 55.2466 9.62483 55.1129C9.75841 54.9793 9.93957 54.9042 10.1285 54.9042C10.3174 54.9042 10.4986 54.9793 10.6322 55.1129C10.7657 55.2466 10.8408 55.4278 10.8408 55.6168ZM19.8481 55.6168C19.8481 55.8058 19.773 55.987 19.6394 56.1207C19.5058 56.2543 19.3247 56.3294 19.1358 56.3294C18.9468 56.3294 18.7657 56.2543 18.6321 56.1207C18.4985 55.987 18.4235 55.8058 18.4235 55.6168C18.4235 55.4278 18.4985 55.2466 18.6321 55.1129C18.7657 54.9793 18.9468 54.9042 19.1358 54.9042C19.3247 54.9042 19.5058 54.9793 19.6394 55.1129C19.773 55.2466 19.8481 55.4278 19.8481 55.6168ZM28.8553 55.6168C28.8553 55.8058 28.7803 55.987 28.6467 56.1207C28.5131 56.2543 28.3319 56.3294 28.143 56.3294C27.9541 56.3294 27.7729 56.2543 27.6393 56.1207C27.5058 55.987 27.4307 55.8058 27.4307 55.6168C27.4307 55.4278 27.5058 55.2466 27.6393 55.1129C27.7729 54.9793 27.9541 54.9042 28.143 54.9042C28.3319 54.9042 28.5131 54.9793 28.6467 55.1129C28.7803 55.2466 28.8553 55.4278 28.8553 55.6168ZM37.8626 55.6168C37.8626 55.8058 37.7875 55.987 37.6539 56.1207C37.5204 56.2543 37.3392 56.3294 37.1503 56.3294C36.9614 56.3294 36.7802 56.2543 36.6466 56.1207C36.513 55.987 36.438 55.8058 36.438 55.6168C36.438 55.4278 36.513 55.2466 36.6466 55.1129C36.7802 54.9793 36.9614 54.9042 37.1503 54.9042C37.3392 54.9042 37.5204 54.9793 37.6539 55.1129C37.7875 55.2466 37.8626 55.4278 37.8626 55.6168ZM46.8694 55.6168C46.8729 55.7125 46.8571 55.8079 46.8229 55.8974C46.7887 55.9868 46.7368 56.0684 46.6703 56.1374C46.6039 56.2063 46.5242 56.2611 46.4361 56.2986C46.348 56.336 46.2533 56.3554 46.1575 56.3554C46.0618 56.3554 45.9671 56.336 45.879 56.2986C45.7909 56.2611 45.7112 56.2063 45.6448 56.1374C45.5783 56.0684 45.5265 55.9868 45.4923 55.8974C45.4581 55.8079 45.4422 55.7125 45.4457 55.6168C45.4525 55.4324 45.5304 55.2579 45.6632 55.1298C45.7959 55.0018 45.9731 54.9303 46.1575 54.9303C46.342 54.9303 46.5192 55.0018 46.6519 55.1298C46.7847 55.2579 46.8626 55.4324 46.8694 55.6168ZM55.8767 55.6168C55.8801 55.7125 55.8643 55.8079 55.8301 55.8974C55.7959 55.9868 55.744 56.0684 55.6776 56.1374C55.6111 56.2063 55.5315 56.2611 55.4434 56.2986C55.3553 56.336 55.2605 56.3554 55.1648 56.3554C55.0691 56.3554 54.9743 56.336 54.8862 56.2986C54.7981 56.2611 54.7185 56.2063 54.652 56.1374C54.5856 56.0684 54.5337 55.9868 54.4995 55.8974C54.4653 55.8079 54.4495 55.7125 54.453 55.6168C54.4597 55.4324 54.5377 55.2579 54.6704 55.1298C54.8032 55.0018 54.9804 54.9303 55.1648 54.9303C55.3492 54.9303 55.5265 55.0018 55.6592 55.1298C55.792 55.2579 55.8699 55.4324 55.8767 55.6168ZM64.8844 55.6168C64.8844 55.8058 64.8093 55.987 64.6758 56.1207C64.5422 56.2543 64.361 56.3294 64.1721 56.3294C63.9832 56.3294 63.802 56.2543 63.6684 56.1207C63.5348 55.987 63.4598 55.8058 63.4598 55.6168C63.4598 55.4278 63.5348 55.2466 63.6684 55.1129C63.802 54.9793 63.9832 54.9042 64.1721 54.9042C64.361 54.9042 64.5422 54.9793 64.6758 55.1129C64.8093 55.2466 64.8844 55.4278 64.8844 55.6168ZM73.8916 55.6168C73.8916 55.8058 73.8166 55.987 73.683 56.1207C73.5494 56.2543 73.3682 56.3294 73.1793 56.3294C72.9904 56.3294 72.8093 56.2543 72.6757 56.1207C72.5421 55.987 72.467 55.8058 72.467 55.6168C72.467 55.4278 72.5421 55.2466 72.6757 55.1129C72.8093 54.9793 72.9904 54.9042 73.1793 54.9042C73.3682 54.9042 73.5494 54.9793 73.683 55.1129C73.8166 55.2466 73.8916 55.4278 73.8916 55.6168ZM82.8989 55.6168C82.8989 55.8058 82.8239 55.987 82.6903 56.1207C82.5567 56.2543 82.3755 56.3294 82.1866 56.3294C81.9977 56.3294 81.8165 56.2543 81.6829 56.1207C81.5493 55.987 81.4743 55.8058 81.4743 55.6168C81.4743 55.4278 81.5493 55.2466 81.6829 55.1129C81.8165 54.9793 81.9977 54.9042 82.1866 54.9042C82.3755 54.9042 82.5567 54.9793 82.6903 55.1129C82.8239 55.2466 82.8989 55.4278 82.8989 55.6168ZM91.9057 55.6168C91.9057 55.8058 91.8306 55.987 91.6971 56.1207C91.5635 56.2543 91.3823 56.3294 91.1934 56.3294C91.0045 56.3294 90.8233 56.2543 90.6897 56.1207C90.5562 55.987 90.4811 55.8058 90.4811 55.6168C90.4811 55.4278 90.5562 55.2466 90.6897 55.1129C90.8233 54.9793 91.0045 54.9042 91.1934 54.9042C91.3823 54.9042 91.5635 54.9793 91.6971 55.1129C91.8306 55.2466 91.9057 55.4278 91.9057 55.6168ZM100.913 55.6168C100.913 55.8058 100.838 55.987 100.704 56.1207C100.571 56.2543 100.39 56.3294 100.201 56.3294C100.012 56.3294 99.8306 56.2543 99.697 56.1207C99.5634 55.987 99.4884 55.8058 99.4884 55.6168C99.4884 55.4278 99.5634 55.2466 99.697 55.1129C99.8306 54.9793 100.012 54.9042 100.201 54.9042C100.39 54.9042 100.571 54.9793 100.704 55.1129C100.838 55.2466 100.913 55.4278 100.913 55.6168ZM1.834 64.7484C1.83397 64.842 1.81552 64.9347 1.77968 65.0212C1.74385 65.1076 1.69133 65.1862 1.62514 65.2524C1.55896 65.3185 1.48037 65.371 1.39391 65.4068C1.30745 65.4426 1.21481 65.461 1.12124 65.4609C1.02766 65.4609 0.934995 65.4425 0.848558 65.4066C0.762121 65.3708 0.683615 65.3182 0.617472 65.252C0.551329 65.1858 0.498856 65.1072 0.463077 65.0207C0.427297 64.9342 0.408904 64.8415 0.408936 64.7479C0.408999 64.5589 0.484106 64.3777 0.617733 64.2442C0.75136 64.1106 0.932553 64.0355 1.12147 64.0356C1.31038 64.0357 1.49152 64.1108 1.62506 64.2445C1.75859 64.3782 1.8336 64.5594 1.83353 64.7484H1.834ZM10.8408 64.7484C10.8407 64.9374 10.7656 65.1186 10.632 65.2522C10.4984 65.3858 10.3172 65.4608 10.1282 65.4607C9.93933 65.4606 9.7582 65.3855 9.62466 65.2518C9.49112 65.1182 9.41612 64.9369 9.41618 64.7479C9.41624 64.5589 9.49135 64.3777 9.62498 64.2442C9.7586 64.1106 9.93983 64.0355 10.1287 64.0356C10.3177 64.0357 10.4988 64.1108 10.6323 64.2445C10.7659 64.3782 10.8408 64.5594 10.8408 64.7484ZM19.8481 64.7484C19.848 64.842 19.8296 64.9347 19.7937 65.0212C19.7579 65.1076 19.7054 65.1862 19.6392 65.2524C19.573 65.3185 19.4944 65.371 19.408 65.4068C19.3215 65.4426 19.2289 65.461 19.1353 65.4609C19.0417 65.4609 18.949 65.4425 18.8626 65.4066C18.7762 65.3708 18.6977 65.3182 18.6315 65.252C18.5654 65.1858 18.5129 65.1072 18.4771 65.0207C18.4414 64.9342 18.423 64.8415 18.423 64.7479C18.4231 64.5589 18.4982 64.3776 18.6318 64.244C18.7655 64.1104 18.9468 64.0353 19.1358 64.0354C19.3247 64.0354 19.5059 64.1106 19.6395 64.2443C19.7731 64.378 19.8481 64.5593 19.8481 64.7484ZM28.8553 64.7484C28.8553 64.842 28.8368 64.9347 28.801 65.0212C28.7651 65.1076 28.7127 65.1862 28.6465 65.2524C28.5803 65.3185 28.5017 65.371 28.4152 65.4068C28.3288 65.4426 28.2361 65.461 28.1426 65.4609C28.049 65.4609 27.9563 65.4425 27.8699 65.4066C27.7834 65.3708 27.7049 65.3182 27.6388 65.252C27.5726 65.1858 27.5202 65.1072 27.4844 65.0207C27.4486 64.9342 27.4302 64.8415 27.4303 64.7479C27.4303 64.5589 27.5054 64.3777 27.639 64.2442C27.7727 64.1106 27.9539 64.0355 28.1428 64.0356C28.3317 64.0357 28.5128 64.1108 28.6464 64.2445C28.7799 64.3782 28.8549 64.5594 28.8549 64.7484H28.8553ZM37.8626 64.7484C37.8626 64.842 37.8441 64.9347 37.8083 65.0212C37.7724 65.1076 37.7199 65.1862 37.6537 65.2524C37.5875 65.3185 37.509 65.371 37.4225 65.4068C37.3361 65.4426 37.2434 65.461 37.1498 65.4609C37.0562 65.4609 36.9636 65.4425 36.8772 65.4066C36.7907 65.3708 36.7122 65.3182 36.646 65.252C36.5799 65.1858 36.5274 65.1072 36.4916 65.0207C36.4559 64.9342 36.4375 64.8415 36.4375 64.7479C36.4376 64.5589 36.5127 64.3777 36.6463 64.2442C36.7799 64.1106 36.9611 64.0355 37.15 64.0356C37.339 64.0357 37.5201 64.1108 37.6537 64.2445C37.7872 64.3782 37.8622 64.5594 37.8621 64.7484H37.8626ZM46.8694 64.7484C46.8694 64.9374 46.7943 65.1186 46.6608 65.2522C46.5272 65.3859 46.346 65.4609 46.1571 65.4609C45.9682 65.4609 45.787 65.3859 45.6534 65.2522C45.5198 65.1186 45.4448 64.9374 45.4448 64.7484C45.4448 64.5594 45.5198 64.3782 45.6534 64.2446C45.787 64.1109 45.9682 64.0358 46.1571 64.0358C46.346 64.0358 46.5272 64.1109 46.6608 64.2446C46.7943 64.3782 46.8694 64.5594 46.8694 64.7484ZM55.8767 64.7484C55.8767 64.9374 55.8016 65.1186 55.668 65.2522C55.5344 65.3859 55.3533 65.4609 55.1644 65.4609C54.9754 65.4609 54.7943 65.3859 54.6607 65.2522C54.5271 65.1186 54.4521 64.9374 54.4521 64.7484C54.4521 64.5594 54.5271 64.3782 54.6607 64.2446C54.7943 64.1109 54.9754 64.0358 55.1644 64.0358C55.3533 64.0358 55.5344 64.1109 55.668 64.2446C55.8016 64.3782 55.8767 64.5594 55.8767 64.7484ZM64.8844 64.7484C64.8843 64.9374 64.8092 65.1187 64.6755 65.2524C64.5418 65.386 64.3606 65.461 64.1716 65.4609C63.9826 65.4609 63.8014 65.3857 63.6678 65.252C63.5342 65.1183 63.4592 64.937 63.4593 64.7479C63.4593 64.6543 63.4778 64.5617 63.5136 64.4752C63.5495 64.3887 63.602 64.3102 63.6682 64.244C63.7344 64.1778 63.8129 64.1253 63.8994 64.0895C63.9858 64.0537 64.0785 64.0353 64.1721 64.0354C64.2657 64.0354 64.3583 64.0539 64.4447 64.0897C64.5312 64.1256 64.6097 64.1781 64.6758 64.2443C64.742 64.3105 64.7945 64.3891 64.8302 64.4756C64.866 64.5621 64.8844 64.6548 64.8844 64.7484ZM73.8916 64.7484C73.8916 64.9374 73.8164 65.1187 73.6828 65.2524C73.5491 65.386 73.3678 65.461 73.1789 65.4609C72.9899 65.4609 72.8087 65.3857 72.6751 65.252C72.5415 65.1183 72.4665 64.937 72.4666 64.7479C72.4666 64.5589 72.5417 64.3777 72.6754 64.2442C72.809 64.1106 72.9902 64.0355 73.1791 64.0356C73.368 64.0357 73.5492 64.1108 73.6827 64.2445C73.8163 64.3782 73.8912 64.5594 73.8912 64.7484H73.8916ZM82.8989 64.7484C82.8988 64.9375 82.8237 65.1188 82.69 65.2525C82.5562 65.3862 82.3749 65.4613 82.1859 65.4612C81.9969 65.4611 81.8156 65.386 81.682 65.2522C81.5483 65.1184 81.4733 64.937 81.4734 64.7479C81.4734 64.6543 81.4919 64.5617 81.5277 64.4752C81.5635 64.3887 81.616 64.3102 81.6822 64.244C81.7484 64.1778 81.827 64.1253 81.9134 64.0895C81.9999 64.0537 82.0926 64.0353 82.1861 64.0354C82.2797 64.0354 82.3724 64.0539 82.4588 64.0897C82.5452 64.1256 82.6238 64.1781 82.6899 64.2443C82.7561 64.3105 82.8085 64.3891 82.8443 64.4756C82.8801 64.5621 82.8985 64.6548 82.8984 64.7484H82.8989ZM91.9057 64.7484C91.9057 64.842 91.8872 64.9346 91.8514 65.0211C91.8156 65.1075 91.7631 65.186 91.6969 65.2522C91.6308 65.3183 91.5522 65.3708 91.4658 65.4066C91.3793 65.4424 91.2867 65.4607 91.1932 65.4607C91.0996 65.4607 91.007 65.4422 90.9206 65.4064C90.8342 65.3705 90.7557 65.318 90.6896 65.2518C90.6234 65.1857 90.571 65.1071 90.5352 65.0206C90.4995 64.9342 90.4811 64.8415 90.4811 64.7479C90.4812 64.5589 90.5563 64.3777 90.6899 64.2442C90.8235 64.1106 91.0047 64.0355 91.1936 64.0356C91.3826 64.0357 91.5637 64.1108 91.6972 64.2445C91.8308 64.3782 91.9058 64.5594 91.9057 64.7484ZM100.913 64.7484C100.913 64.9374 100.838 65.1187 100.704 65.2524C100.57 65.386 100.389 65.461 100.2 65.4609C100.011 65.4609 99.83 65.3857 99.6964 65.252C99.5629 65.1183 99.4878 64.937 99.4879 64.7479C99.4879 64.6543 99.5064 64.5617 99.5422 64.4752C99.578 64.3887 99.6306 64.3102 99.6967 64.244C99.7629 64.1778 99.8415 64.1253 99.928 64.0895C100.014 64.0537 100.107 64.0353 100.201 64.0354C100.294 64.0354 100.387 64.0539 100.473 64.0897C100.56 64.1256 100.638 64.1781 100.704 64.2443C100.771 64.3105 100.823 64.3891 100.859 64.4756C100.895 64.5621 100.913 64.6548 100.913 64.7484ZM1.834 73.88C1.83397 73.9736 1.81552 74.0663 1.77968 74.1528C1.74385 74.2392 1.69133 74.3178 1.62514 74.384C1.55896 74.4501 1.48037 74.5026 1.39391 74.5384C1.30745 74.5742 1.21481 74.5926 1.12124 74.5926C1.02766 74.5925 0.934995 74.5741 0.848558 74.5382C0.762121 74.5024 0.683615 74.4498 0.617472 74.3836C0.551329 74.3174 0.498856 74.2388 0.463077 74.1523C0.427297 74.0658 0.408904 73.9732 0.408936 73.8795C0.408936 73.6906 0.483977 73.5093 0.617559 73.3757C0.751141 73.2421 0.932322 73.167 1.12124 73.167C1.31015 73.167 1.49133 73.2421 1.62491 73.3757C1.75849 73.5093 1.83353 73.6906 1.83353 73.8795L1.834 73.88ZM10.8408 73.88C10.8407 74.069 10.7656 74.2502 10.632 74.3838C10.4984 74.5174 10.3172 74.5924 10.1282 74.5923C9.93933 74.5923 9.7582 74.5171 9.62466 74.3835C9.49112 74.2498 9.41612 74.0685 9.41618 73.8795C9.41618 73.6906 9.49125 73.5093 9.62483 73.3757C9.75841 73.2421 9.93957 73.167 10.1285 73.167C10.3174 73.167 10.4986 73.2421 10.6322 73.3757C10.7657 73.5093 10.8408 73.6906 10.8408 73.8795V73.88ZM19.8481 73.88C19.848 73.9736 19.8296 74.0663 19.7937 74.1528C19.7579 74.2392 19.7054 74.3178 19.6392 74.384C19.573 74.4501 19.4944 74.5026 19.408 74.5384C19.3215 74.5742 19.2289 74.5926 19.1353 74.5926C19.0417 74.5925 18.949 74.5741 18.8626 74.5382C18.7762 74.5024 18.6977 74.4498 18.6315 74.3836C18.5654 74.3174 18.5129 74.2388 18.4771 74.1523C18.4414 74.0658 18.423 73.9732 18.423 73.8795C18.423 73.6905 18.498 73.5092 18.6317 73.3755C18.7653 73.2418 18.9465 73.1667 19.1355 73.1667C19.3245 73.1667 19.5057 73.2418 19.6394 73.3755C19.773 73.5092 19.8481 73.6905 19.8481 73.8795V73.88ZM28.8553 73.88C28.8553 73.9736 28.8368 74.0663 28.801 74.1528C28.7651 74.2392 28.7127 74.3178 28.6465 74.384C28.5803 74.4501 28.5017 74.5026 28.4152 74.5384C28.3288 74.5742 28.2361 74.5926 28.1426 74.5926C28.049 74.5925 27.9563 74.5741 27.8699 74.5382C27.7834 74.5024 27.7049 74.4498 27.6388 74.3836C27.5726 74.3174 27.5202 74.2388 27.4844 74.1523C27.4486 74.0658 27.4302 73.9732 27.4303 73.8795C27.4303 73.6906 27.5053 73.5093 27.6389 73.3757C27.7725 73.2421 27.9536 73.167 28.1426 73.167C28.3315 73.167 28.5126 73.2421 28.6462 73.3757C28.7798 73.5093 28.8549 73.6906 28.8549 73.8795L28.8553 73.88ZM37.8626 73.88C37.8626 73.9736 37.8441 74.0663 37.8083 74.1528C37.7724 74.2392 37.7199 74.3178 37.6537 74.384C37.5875 74.4501 37.509 74.5026 37.4225 74.5384C37.3361 74.5742 37.2434 74.5926 37.1498 74.5926C37.0562 74.5925 36.9636 74.5741 36.8772 74.5382C36.7907 74.5024 36.7122 74.4498 36.646 74.3836C36.5799 74.3174 36.5274 74.2388 36.4916 74.1523C36.4559 74.0658 36.4375 73.9732 36.4375 73.8795C36.4375 73.6906 36.5125 73.5093 36.6461 73.3757C36.7797 73.2421 36.9609 73.167 37.1498 73.167C37.3387 73.167 37.5199 73.2421 37.6535 73.3757C37.7871 73.5093 37.8621 73.6906 37.8621 73.8795L37.8626 73.88ZM46.8694 73.88C46.8694 74.069 46.7943 74.2502 46.6608 74.3839C46.5272 74.5175 46.346 74.5926 46.1571 74.5926C45.9682 74.5926 45.787 74.5175 45.6534 74.3839C45.5198 74.2502 45.4448 74.069 45.4448 73.88C45.4448 73.691 45.5198 73.5098 45.6534 73.3762C45.787 73.2425 45.9682 73.1675 46.1571 73.1675C46.346 73.1675 46.5272 73.2425 46.6608 73.3762C46.7943 73.5098 46.8694 73.691 46.8694 73.88ZM55.8767 73.88C55.8767 74.069 55.8016 74.2502 55.668 74.3839C55.5344 74.5175 55.3533 74.5926 55.1644 74.5926C54.9754 74.5926 54.7943 74.5175 54.6607 74.3839C54.5271 74.2502 54.4521 74.069 54.4521 73.88C54.4521 73.691 54.5271 73.5098 54.6607 73.3762C54.7943 73.2425 54.9754 73.1675 55.1644 73.1675C55.3533 73.1675 55.5344 73.2425 55.668 73.3762C55.8016 73.5098 55.8767 73.691 55.8767 73.88ZM64.8844 73.88C64.8843 74.0691 64.8092 74.2503 64.6755 74.384C64.5418 74.5176 64.3606 74.5926 64.1716 74.5926C63.9826 74.5925 63.8014 74.5174 63.6678 74.3836C63.5342 74.2499 63.4592 74.0686 63.4593 73.8795C63.4593 73.6905 63.5344 73.5092 63.668 73.3755C63.8016 73.2418 63.9829 73.1667 64.1719 73.1667C64.3608 73.1667 64.5421 73.2418 64.6757 73.3755C64.8093 73.5092 64.8844 73.6905 64.8844 73.8795V73.88ZM73.8916 73.88C73.8916 74.0691 73.8164 74.2503 73.6828 74.384C73.5491 74.5176 73.3678 74.5926 73.1789 74.5926C72.9899 74.5925 72.8087 74.5174 72.6751 74.3836C72.5415 74.2499 72.4665 74.0686 72.4666 73.8795C72.4666 73.6906 72.5416 73.5093 72.6752 73.3757C72.8088 73.2421 72.99 73.167 73.1789 73.167C73.3678 73.167 73.549 73.2421 73.6825 73.3757C73.8161 73.5093 73.8912 73.6906 73.8912 73.8795L73.8916 73.88ZM82.8989 73.88C82.8989 73.9736 82.8804 74.0663 82.8446 74.1528C82.8087 74.2393 82.7562 74.3179 82.69 74.3841C82.6237 74.4503 82.5452 74.5028 82.4587 74.5386C82.3722 74.5744 82.2795 74.5928 82.1859 74.5928C82.0923 74.5928 81.9996 74.5743 81.9131 74.5384C81.8267 74.5026 81.7481 74.45 81.682 74.3838C81.6158 74.3176 81.5633 74.2389 81.5275 74.1524C81.4917 74.0659 81.4733 73.9732 81.4734 73.8795C81.4734 73.6905 81.5484 73.5092 81.6821 73.3755C81.8157 73.2418 81.9969 73.1667 82.1859 73.1667C82.3749 73.1667 82.5561 73.2418 82.6897 73.3755C82.8234 73.5092 82.8984 73.6905 82.8984 73.8795L82.8989 73.88ZM91.9057 73.88C91.9057 73.9736 91.8872 74.0662 91.8514 74.1527C91.8156 74.2391 91.7631 74.3176 91.6969 74.3838C91.6308 74.4499 91.5522 74.5024 91.4658 74.5382C91.3793 74.574 91.2867 74.5924 91.1932 74.5923C91.0996 74.5923 91.007 74.5738 90.9206 74.538C90.8342 74.5022 90.7557 74.4497 90.6896 74.3835C90.6234 74.3173 90.571 74.2387 90.5352 74.1522C90.4995 74.0658 90.4811 73.9731 90.4811 73.8795C90.4811 73.6906 90.5562 73.5093 90.6897 73.3757C90.8233 73.2421 91.0045 73.167 91.1934 73.167C91.3823 73.167 91.5635 73.2421 91.6971 73.3757C91.8306 73.5093 91.9057 73.6906 91.9057 73.8795V73.88ZM100.913 73.88C100.913 74.0691 100.838 74.2503 100.704 74.384C100.57 74.5176 100.389 74.5926 100.2 74.5926C100.011 74.5925 99.83 74.5174 99.6964 74.3836C99.5629 74.2499 99.4878 74.0686 99.4879 73.8795C99.4879 73.6905 99.563 73.5092 99.6966 73.3755C99.8302 73.2418 100.011 73.1667 100.2 73.1667C100.389 73.1667 100.571 73.2418 100.704 73.3755C100.838 73.5092 100.913 73.6905 100.913 73.8795V73.88ZM1.834 83.0111C1.834 83.2001 1.75896 83.3814 1.62537 83.515C1.49179 83.6486 1.31061 83.7237 1.1217 83.7237C0.932785 83.7237 0.751605 83.6486 0.618023 83.515C0.484441 83.3814 0.409399 83.2001 0.409399 83.0111C0.409399 82.8222 0.484441 82.6409 0.618023 82.5073C0.751605 82.3737 0.932785 82.2986 1.1217 82.2986C1.31061 82.2986 1.49179 82.3737 1.62537 82.5073C1.75896 82.6409 1.834 82.8222 1.834 83.0111ZM10.8408 83.0111C10.8408 83.2001 10.7657 83.3814 10.6322 83.515C10.4986 83.6486 10.3174 83.7237 10.1285 83.7237C9.93957 83.7237 9.75841 83.6486 9.62483 83.515C9.49125 83.3814 9.41618 83.2001 9.41618 83.0111C9.41618 82.8222 9.49125 82.6409 9.62483 82.5073C9.75841 82.3737 9.93957 82.2986 10.1285 82.2986C10.3174 82.2986 10.4986 82.3737 10.6322 82.5073C10.7657 82.6409 10.8408 82.8222 10.8408 83.0111ZM19.8481 83.0111C19.8481 83.2001 19.773 83.3814 19.6394 83.515C19.5058 83.6486 19.3247 83.7237 19.1358 83.7237C18.9468 83.7237 18.7657 83.6486 18.6321 83.515C18.4985 83.3814 18.4235 83.2001 18.4235 83.0111C18.4235 82.8222 18.4985 82.6409 18.6321 82.5073C18.7657 82.3737 18.9468 82.2986 19.1358 82.2986C19.3247 82.2986 19.5058 82.3737 19.6394 82.5073C19.773 82.6409 19.8481 82.8222 19.8481 83.0111ZM28.8553 83.0111C28.8553 83.2001 28.7803 83.3814 28.6467 83.515C28.5131 83.6486 28.3319 83.7237 28.143 83.7237C27.9541 83.7237 27.7729 83.6486 27.6393 83.515C27.5058 83.3814 27.4307 83.2001 27.4307 83.0111C27.4307 82.8222 27.5058 82.6409 27.6393 82.5073C27.7729 82.3737 27.9541 82.2986 28.143 82.2986C28.3319 82.2986 28.5131 82.3737 28.6467 82.5073C28.7803 82.6409 28.8553 82.8222 28.8553 83.0111ZM37.8626 83.0111C37.8626 83.2001 37.7875 83.3814 37.6539 83.515C37.5204 83.6486 37.3392 83.7237 37.1503 83.7237C36.9614 83.7237 36.7802 83.6486 36.6466 83.515C36.513 83.3814 36.438 83.2001 36.438 83.0111C36.438 82.8222 36.513 82.6409 36.6466 82.5073C36.7802 82.3737 36.9614 82.2986 37.1503 82.2986C37.3392 82.2986 37.5204 82.3737 37.6539 82.5073C37.7875 82.6409 37.8626 82.8222 37.8626 83.0111ZM46.8694 83.0111C46.8729 83.1068 46.8572 83.2023 46.823 83.2917C46.7889 83.3812 46.7371 83.4629 46.6707 83.5319C46.6043 83.6009 46.5247 83.6557 46.4366 83.6933C46.3485 83.7308 46.2538 83.7501 46.158 83.7502C46.0623 83.7503 45.9675 83.731 45.8794 83.6936C45.7913 83.6562 45.7116 83.6014 45.6451 83.5325C45.5786 83.4636 45.5267 83.3821 45.4925 83.2926C45.4582 83.2032 45.4423 83.1078 45.4457 83.0121C45.4523 82.8277 45.5302 82.6531 45.6628 82.525C45.7955 82.3969 45.9727 82.3252 46.1571 82.3251C46.3415 82.325 46.5188 82.3964 46.6516 82.5243C46.7845 82.6523 46.8625 82.8268 46.8694 83.0111ZM55.8767 83.0111C55.8802 83.1068 55.8644 83.2023 55.8303 83.2917C55.7962 83.3812 55.7443 83.4629 55.6779 83.5319C55.6115 83.6009 55.5319 83.6557 55.4438 83.6933C55.3558 83.7308 55.261 83.7501 55.1653 83.7502C55.0696 83.7503 54.9748 83.731 54.8867 83.6936C54.7986 83.6562 54.7189 83.6014 54.6524 83.5325C54.5859 83.4636 54.534 83.3821 54.4997 83.2926C54.4654 83.2032 54.4495 83.1078 54.453 83.0121C54.4596 82.8277 54.5374 82.6531 54.6701 82.525C54.8028 82.3969 54.9799 82.3252 55.1644 82.3251C55.3488 82.325 55.5261 82.3964 55.6589 82.5243C55.7917 82.6523 55.8698 82.8268 55.8767 83.0111ZM64.8844 83.0111C64.8844 83.2001 64.8093 83.3814 64.6758 83.515C64.5422 83.6486 64.361 83.7237 64.1721 83.7237C63.9832 83.7237 63.802 83.6486 63.6684 83.515C63.5348 83.3814 63.4598 83.2001 63.4598 83.0111C63.4598 82.8222 63.5348 82.6409 63.6684 82.5073C63.802 82.3737 63.9832 82.2986 64.1721 82.2986C64.361 82.2986 64.5422 82.3737 64.6758 82.5073C64.8093 82.6409 64.8844 82.8222 64.8844 83.0111ZM73.8916 83.0111C73.8916 83.2001 73.8166 83.3814 73.683 83.515C73.5494 83.6486 73.3682 83.7237 73.1793 83.7237C72.9904 83.7237 72.8093 83.6486 72.6757 83.515C72.5421 83.3814 72.467 83.2001 72.467 83.0111C72.467 82.8222 72.5421 82.6409 72.6757 82.5073C72.8093 82.3737 72.9904 82.2986 73.1793 82.2986C73.3682 82.2986 73.5494 82.3737 73.683 82.5073C73.8166 82.6409 73.8916 82.8222 73.8916 83.0111ZM82.8989 83.0111C82.8989 83.2001 82.8239 83.3814 82.6903 83.515C82.5567 83.6486 82.3755 83.7237 82.1866 83.7237C81.9977 83.7237 81.8165 83.6486 81.6829 83.515C81.5493 83.3814 81.4743 83.2001 81.4743 83.0111C81.4743 82.8222 81.5493 82.6409 81.6829 82.5073C81.8165 82.3737 81.9977 82.2986 82.1866 82.2986C82.3755 82.2986 82.5567 82.3737 82.6903 82.5073C82.8239 82.6409 82.8989 82.8222 82.8989 83.0111ZM91.9057 83.0111C91.9057 83.2001 91.8306 83.3814 91.6971 83.515C91.5635 83.6486 91.3823 83.7237 91.1934 83.7237C91.0045 83.7237 90.8233 83.6486 90.6897 83.515C90.5562 83.3814 90.4811 83.2001 90.4811 83.0111C90.4811 82.8222 90.5562 82.6409 90.6897 82.5073C90.8233 82.3737 91.0045 82.2986 91.1934 82.2986C91.3823 82.2986 91.5635 82.3737 91.6971 82.5073C91.8306 82.6409 91.9057 82.8222 91.9057 83.0111ZM100.913 83.0111C100.913 83.2001 100.838 83.3814 100.704 83.515C100.571 83.6486 100.39 83.7237 100.201 83.7237C100.012 83.7237 99.8306 83.6486 99.697 83.515C99.5634 83.3814 99.4884 83.2001 99.4884 83.0111C99.4884 82.8222 99.5634 82.6409 99.697 82.5073C99.8306 82.3737 100.012 82.2986 100.201 82.2986C100.39 82.2986 100.571 82.3737 100.704 82.5073C100.838 82.6409 100.913 82.8222 100.913 83.0111ZM1.834 92.1432C1.83397 92.2368 1.81552 92.3295 1.77968 92.416C1.74385 92.5025 1.69133 92.581 1.62514 92.6472C1.55896 92.7134 1.48037 92.7658 1.39391 92.8016C1.30745 92.8374 1.21481 92.8558 1.12124 92.8558C1.02766 92.8558 0.934995 92.8373 0.848558 92.8014C0.762121 92.7656 0.683615 92.7131 0.617472 92.6469C0.551329 92.5806 0.498856 92.502 0.463077 92.4155C0.427297 92.329 0.408904 92.2364 0.408936 92.1428C0.408936 91.9538 0.483977 91.7725 0.617559 91.6389C0.751141 91.5053 0.932322 91.4302 1.12124 91.4302C1.31015 91.4302 1.49133 91.5053 1.62491 91.6389C1.75849 91.7725 1.83353 91.9538 1.83353 92.1428L1.834 92.1432ZM10.8408 92.1432C10.8407 92.3322 10.7656 92.5134 10.632 92.647C10.4984 92.7806 10.3172 92.8556 10.1282 92.8556C9.93933 92.8555 9.7582 92.7803 9.62466 92.6467C9.49112 92.513 9.41612 92.3317 9.41618 92.1428C9.41618 91.9538 9.49125 91.7725 9.62483 91.6389C9.75841 91.5053 9.93957 91.4302 10.1285 91.4302C10.3174 91.4302 10.4986 91.5053 10.6322 91.6389C10.7657 91.7725 10.8408 91.9538 10.8408 92.1428V92.1432ZM19.8481 92.1432C19.848 92.2368 19.8296 92.3295 19.7937 92.416C19.7579 92.5025 19.7054 92.581 19.6392 92.6472C19.573 92.7134 19.4944 92.7658 19.408 92.8016C19.3215 92.8374 19.2289 92.8558 19.1353 92.8558C19.0417 92.8558 18.949 92.8373 18.8626 92.8014C18.7762 92.7656 18.6977 92.7131 18.6315 92.6469C18.5654 92.5806 18.5129 92.502 18.4771 92.4155C18.4414 92.329 18.423 92.2364 18.423 92.1428C18.423 91.9537 18.498 91.7724 18.6317 91.6387C18.7653 91.5051 18.9465 91.43 19.1355 91.43C19.3245 91.43 19.5057 91.5051 19.6394 91.6387C19.773 91.7724 19.8481 91.9537 19.8481 92.1428V92.1432ZM28.8553 92.1432C28.8553 92.2368 28.8368 92.3295 28.801 92.416C28.7651 92.5025 28.7127 92.581 28.6465 92.6472C28.5803 92.7134 28.5017 92.7658 28.4152 92.8016C28.3288 92.8374 28.2361 92.8558 28.1426 92.8558C28.049 92.8558 27.9563 92.8373 27.8699 92.8014C27.7834 92.7656 27.7049 92.7131 27.6388 92.6469C27.5726 92.5806 27.5202 92.502 27.4844 92.4155C27.4486 92.329 27.4302 92.2364 27.4303 92.1428C27.4303 91.9538 27.5053 91.7725 27.6389 91.6389C27.7725 91.5053 27.9536 91.4302 28.1426 91.4302C28.3315 91.4302 28.5126 91.5053 28.6462 91.6389C28.7798 91.7725 28.8549 91.9538 28.8549 92.1428L28.8553 92.1432ZM37.8626 92.1432C37.8626 92.2368 37.8441 92.3295 37.8083 92.416C37.7724 92.5025 37.7199 92.581 37.6537 92.6472C37.5875 92.7134 37.509 92.7658 37.4225 92.8016C37.3361 92.8374 37.2434 92.8558 37.1498 92.8558C37.0562 92.8558 36.9636 92.8373 36.8772 92.8014C36.7907 92.7656 36.7122 92.7131 36.646 92.6469C36.5799 92.5806 36.5274 92.502 36.4916 92.4155C36.4559 92.329 36.4375 92.2364 36.4375 92.1428C36.4375 91.9538 36.5125 91.7725 36.6461 91.6389C36.7797 91.5053 36.9609 91.4302 37.1498 91.4302C37.3387 91.4302 37.5199 91.5053 37.6535 91.6389C37.7871 91.7725 37.8621 91.9538 37.8621 92.1428L37.8626 92.1432ZM46.8694 92.1432C46.8694 92.3322 46.7943 92.5135 46.6608 92.6471C46.5272 92.7807 46.346 92.8558 46.1571 92.8558C45.9682 92.8558 45.787 92.7807 45.6534 92.6471C45.5198 92.5135 45.4448 92.3322 45.4448 92.1432C45.4448 91.9542 45.5198 91.773 45.6534 91.6394C45.787 91.5057 45.9682 91.4307 46.1571 91.4307C46.346 91.4307 46.5272 91.5057 46.6608 91.6394C46.7943 91.773 46.8694 91.9542 46.8694 92.1432ZM55.8767 92.1432C55.8767 92.3322 55.8016 92.5135 55.668 92.6471C55.5344 92.7807 55.3533 92.8558 55.1644 92.8558C54.9754 92.8558 54.7943 92.7807 54.6607 92.6471C54.5271 92.5135 54.4521 92.3322 54.4521 92.1432C54.4521 91.9542 54.5271 91.773 54.6607 91.6394C54.7943 91.5057 54.9754 91.4307 55.1644 91.4307C55.3533 91.4307 55.5344 91.5057 55.668 91.6394C55.8016 91.773 55.8767 91.9542 55.8767 92.1432ZM64.8844 92.1432C64.8843 92.3323 64.8092 92.5136 64.6755 92.6472C64.5418 92.7808 64.3606 92.8558 64.1716 92.8558C63.9826 92.8557 63.8014 92.7806 63.6678 92.6469C63.5342 92.5131 63.4592 92.3318 63.4593 92.1428C63.4593 91.9537 63.5344 91.7724 63.668 91.6387C63.8016 91.5051 63.9829 91.43 64.1719 91.43C64.3608 91.43 64.5421 91.5051 64.6757 91.6387C64.8093 91.7724 64.8844 91.9537 64.8844 92.1428V92.1432ZM73.8916 92.1432C73.8916 92.3323 73.8164 92.5136 73.6828 92.6472C73.5491 92.7808 73.3678 92.8558 73.1789 92.8558C72.9899 92.8557 72.8087 92.7806 72.6751 92.6469C72.5415 92.5131 72.4665 92.3318 72.4666 92.1428C72.4666 91.9538 72.5416 91.7725 72.6752 91.6389C72.8088 91.5053 72.99 91.4302 73.1789 91.4302C73.3678 91.4302 73.549 91.5053 73.6825 91.6389C73.8161 91.7725 73.8912 91.9538 73.8912 92.1428L73.8916 92.1432ZM82.8989 92.1432C82.8988 92.3323 82.8237 92.5137 82.69 92.6473C82.5562 92.781 82.3749 92.8561 82.1859 92.856C81.9969 92.8559 81.8156 92.7808 81.682 92.647C81.5483 92.5133 81.4733 92.3319 81.4734 92.1428C81.4734 91.9537 81.5484 91.7724 81.6821 91.6387C81.8157 91.5051 81.9969 91.43 82.1859 91.43C82.3749 91.43 82.5561 91.5051 82.6897 91.6387C82.8234 91.7724 82.8984 91.9537 82.8984 92.1428L82.8989 92.1432ZM91.9057 92.1432C91.9057 92.2368 91.8872 92.3294 91.8514 92.4159C91.8156 92.5023 91.7631 92.5809 91.6969 92.647C91.6308 92.7132 91.5522 92.7656 91.4658 92.8014C91.3793 92.8372 91.2867 92.8556 91.1932 92.8556C91.0996 92.8555 91.007 92.8371 90.9206 92.8012C90.8342 92.7654 90.7557 92.7129 90.6896 92.6467C90.6234 92.5805 90.571 92.5019 90.5352 92.4155C90.4995 92.329 90.4811 92.2363 90.4811 92.1428C90.4811 91.9538 90.5562 91.7725 90.6897 91.6389C90.8233 91.5053 91.0045 91.4302 91.1934 91.4302C91.3823 91.4302 91.5635 91.5053 91.6971 91.6389C91.8306 91.7725 91.9057 91.9538 91.9057 92.1428V92.1432ZM100.913 92.1432C100.913 92.3323 100.838 92.5136 100.704 92.6472C100.57 92.7808 100.389 92.8558 100.2 92.8558C100.011 92.8557 99.83 92.7806 99.6964 92.6469C99.5629 92.5131 99.4878 92.3318 99.4879 92.1428C99.4879 91.9537 99.563 91.7724 99.6966 91.6387C99.8302 91.5051 100.011 91.43 100.2 91.43C100.389 91.43 100.571 91.5051 100.704 91.6387C100.838 91.7724 100.913 91.9537 100.913 92.1428V92.1432Z" fill="#8BADC1"/>
</svg>
